<?xml version="1.0" encoding="UTF-8"?>
<svg width="311.1" height="226.2" viewBox="0 0 311.1 226.2" xmlns="http://www.w3.org/2000/svg">
  <title>Antenna Visualization - Debug Mode</title>
  <desc>Generated by Mini Antenna Designer</desc>
  
  <defs>
    <style>
      .dimension-text { font-family: Arial, sans-serif; font-size: 12px; fill: #333; }
      .label-text { font-family: Arial, sans-serif; font-size: 14px; font-weight: bold; fill: #000; }
      .title-text { font-family: Arial, sans-serif; font-size: 18px; font-weight: bold; fill: #000; }
      .subtitle-text { font-family: Arial, sans-serif; font-size: 12px; fill: #666; }
      .dimension-line { stroke: #666; stroke-width: 1; fill: none; }
      .feed-point { fill: red; stroke: darkred; stroke-width: 2; }
    </style>
  </defs>
  
  <!-- Background -->
  <rect width="311.1" height="226.2" fill="white" stroke="black" stroke-width="2"/>
  
  <!-- Grid lines for alignment (debug mode only) -->
  <line x1="0" y1="0" x2="0" y2="226.2" stroke="#e0e0e0" stroke-width="0.5" opacity="0.5"/>
    <line x1="50" y1="0" x2="50" y2="226.2" stroke="#e0e0e0" stroke-width="0.5" opacity="0.5"/>
    <line x1="100" y1="0" x2="100" y2="226.2" stroke="#e0e0e0" stroke-width="0.5" opacity="0.5"/>
    <line x1="150" y1="0" x2="150" y2="226.2" stroke="#e0e0e0" stroke-width="0.5" opacity="0.5"/>
    <line x1="200" y1="0" x2="200" y2="226.2" stroke="#e0e0e0" stroke-width="0.5" opacity="0.5"/>
    <line x1="250" y1="0" x2="250" y2="226.2" stroke="#e0e0e0" stroke-width="0.5" opacity="0.5"/>
    <line x1="300" y1="0" x2="300" y2="226.2" stroke="#e0e0e0" stroke-width="0.5" opacity="0.5"/>
    <line x1="0" y1="0" x2="311.09999999999997" y2="0" stroke="#e0e0e0" stroke-width="0.5" opacity="0.5"/>
    <line x1="0" y1="50" x2="311.09999999999997" y2="50" stroke="#e0e0e0" stroke-width="0.5" opacity="0.5"/>
    <line x1="0" y1="100" x2="311.09999999999997" y2="100" stroke="#e0e0e0" stroke-width="0.5" opacity="0.5"/>
    <line x1="0" y1="150" x2="311.09999999999997" y2="150" stroke="#e0e0e0" stroke-width="0.5" opacity="0.5"/>
    <line x1="0" y1="200" x2="311.09999999999997" y2="200" stroke="#e0e0e0" stroke-width="0.5" opacity="0.5"/>
  
  <!-- Antenna wire segments -->
  <g stroke-linecap="round" stroke-linejoin="round" id="antenna-traces">
    <path d="M 20.0000 27.6000 L 211.1000 27.6000" stroke="black" stroke-width="2" fill="none"/>
    <path d="M 211.1000 27.6000 L 211.1000 31.4000" stroke="black" stroke-width="2" fill="none"/>
    <path d="M 211.1000 31.4000 L 20.0000 31.4000" stroke="black" stroke-width="2" fill="none"/>
    <path d="M 20.0000 31.4000 L 20.0000 35.2000" stroke="black" stroke-width="2" fill="none"/>
    <path d="M 20.0000 35.2000 L 211.1000 35.2000" stroke="black" stroke-width="2" fill="none"/>
    <path d="M 211.1000 35.2000 L 211.1000 39.0000" stroke="black" stroke-width="2" fill="none"/>
    <path d="M 211.1000 39.0000 L 20.0000 39.0000" stroke="black" stroke-width="2" fill="none"/>
    <path d="M 20.0000 39.0000 L 20.0000 42.8000" stroke="black" stroke-width="2" fill="none"/>
    <path d="M 20.0000 42.8000 L 211.1000 42.8000" stroke="black" stroke-width="2" fill="none"/>
    <path d="M 211.1000 42.8000 L 211.1000 46.6000" stroke="black" stroke-width="2" fill="none"/>
    <path d="M 211.1000 46.6000 L 20.0000 46.6000" stroke="black" stroke-width="2" fill="none"/>
    <path d="M 20.0000 46.6000 L 20.0000 50.4000" stroke="black" stroke-width="2" fill="none"/>
    <path d="M 20.0000 50.4000 L 211.1000 50.4000" stroke="black" stroke-width="2" fill="none"/>
    <path d="M 211.1000 50.4000 L 211.1000 54.2000" stroke="black" stroke-width="2" fill="none"/>
    <path d="M 211.1000 54.2000 L 20.0000 54.2000" stroke="black" stroke-width="2" fill="none"/>
    <path d="M 20.0000 54.2000 L 20.0000 58.0000" stroke="black" stroke-width="2" fill="none"/>
    <path d="M 20.0000 58.0000 L 211.1000 58.0000" stroke="black" stroke-width="2" fill="none"/>
    <path d="M 211.1000 58.0000 L 211.1000 61.8000" stroke="black" stroke-width="2" fill="none"/>
    <path d="M 211.1000 61.8000 L 20.0000 61.8000" stroke="black" stroke-width="2" fill="none"/>
    <path d="M 20.0000 61.8000 L 20.0000 65.6000" stroke="black" stroke-width="2" fill="none"/>
    <path d="M 20.0000 65.6000 L 211.1000 65.6000" stroke="black" stroke-width="2" fill="none"/>
    <path d="M 211.1000 65.6000 L 211.1000 69.4000" stroke="black" stroke-width="2" fill="none"/>
    <path d="M 211.1000 69.4000 L 20.0000 69.4000" stroke="black" stroke-width="2" fill="none"/>
    <path d="M 20.0000 69.4000 L 20.0000 73.2000" stroke="black" stroke-width="2" fill="none"/>
    <path d="M 20.0000 73.2000 L 211.1000 73.2000" stroke="black" stroke-width="2" fill="none"/>
    <path d="M 211.1000 73.2000 L 211.1000 77.0000" stroke="black" stroke-width="2" fill="none"/>
    <path d="M 211.1000 77.0000 L 20.0000 77.0000" stroke="black" stroke-width="2" fill="none"/>
    <path d="M 20.0000 77.0000 L 20.0000 80.8000" stroke="black" stroke-width="2" fill="none"/>
    <path d="M 20.0000 80.8000 L 211.1000 80.8000" stroke="black" stroke-width="2" fill="none"/>
    <path d="M 211.1000 80.8000 L 211.1000 84.6000" stroke="black" stroke-width="2" fill="none"/>
    <path d="M 211.1000 84.6000 L 20.0000 84.6000" stroke="black" stroke-width="2" fill="none"/>
    <path d="M 20.0000 84.6000 L 20.0000 88.4000" stroke="black" stroke-width="2" fill="none"/>
    <path d="M 20.0000 88.4000 L 211.1000 88.4000" stroke="black" stroke-width="2" fill="none"/>
    <path d="M 211.1000 88.4000 L 211.1000 92.2000" stroke="black" stroke-width="2" fill="none"/>
    <path d="M 211.1000 92.2000 L 20.0000 92.2000" stroke="black" stroke-width="2" fill="none"/>
    <path d="M 20.0000 92.2000 L 20.0000 96.0000" stroke="black" stroke-width="2" fill="none"/>
    <path d="M 20.0000 96.0000 L 211.1000 96.0000" stroke="black" stroke-width="2" fill="none"/>
    <path d="M 211.1000 96.0000 L 211.1000 99.8000" stroke="black" stroke-width="2" fill="none"/>
    <path d="M 211.1000 99.8000 L 20.0000 99.8000" stroke="black" stroke-width="2" fill="none"/>
    <path d="M 20.0000 99.8000 L 20.0000 103.6000" stroke="black" stroke-width="2" fill="none"/>
    <path d="M 20.0000 103.6000 L 211.1000 103.6000" stroke="black" stroke-width="2" fill="none"/>
    <path d="M 211.1000 103.6000 L 211.1000 107.4000" stroke="black" stroke-width="2" fill="none"/>
    <path d="M 211.1000 107.4000 L 20.0000 107.4000" stroke="black" stroke-width="2" fill="none"/>
    <path d="M 20.0000 107.4000 L 20.0000 111.2000" stroke="black" stroke-width="2" fill="none"/>
    <path d="M 20.0000 111.2000 L 211.1000 111.2000" stroke="black" stroke-width="2" fill="none"/>
    <path d="M 211.1000 111.2000 L 211.1000 115.0000" stroke="black" stroke-width="2" fill="none"/>
    <path d="M 211.1000 115.0000 L 20.0000 115.0000" stroke="black" stroke-width="2" fill="none"/>
    <path d="M 20.0000 115.0000 L 20.0000 118.8000" stroke="black" stroke-width="2" fill="none"/>
    <path d="M 20.0000 118.8000 L 211.1000 118.8000" stroke="black" stroke-width="2" fill="none"/>
    <path d="M 211.1000 118.8000 L 211.1000 122.6000" stroke="black" stroke-width="2" fill="none"/>
    <path d="M 211.1000 122.6000 L 20.0000 122.6000" stroke="black" stroke-width="2" fill="none"/>
    <path d="M 20.0000 122.6000 L 20.0000 126.4000" stroke="black" stroke-width="2" fill="none"/>
    <path d="M 20.0000 126.4000 L 211.1000 126.4000" stroke="black" stroke-width="2" fill="none"/>
    <path d="M 211.1000 126.4000 L 211.1000 130.2000" stroke="black" stroke-width="2" fill="none"/>
    <path d="M 211.1000 130.2000 L 20.0000 130.2000" stroke="black" stroke-width="2" fill="none"/>
    <path d="M 20.0000 130.2000 L 20.0000 134.0000" stroke="black" stroke-width="2" fill="none"/>
    <path d="M 20.0000 134.0000 L 211.1000 134.0000" stroke="black" stroke-width="2" fill="none"/>
    <path d="M 211.1000 134.0000 L 211.1000 137.8000" stroke="black" stroke-width="2" fill="none"/>
    <path d="M 211.1000 137.8000 L 20.0000 137.8000" stroke="black" stroke-width="2" fill="none"/>
    <path d="M 20.0000 137.8000 L 20.0000 141.6000" stroke="black" stroke-width="2" fill="none"/>
    <path d="M 20.0000 141.6000 L 211.1000 141.6000" stroke="black" stroke-width="2" fill="none"/>
    <path d="M 211.1000 141.6000 L 211.1000 145.4000" stroke="black" stroke-width="2" fill="none"/>
    <path d="M 211.1000 145.4000 L 20.0000 145.4000" stroke="black" stroke-width="2" fill="none"/>
    <path d="M 20.0000 145.4000 L 20.0000 149.2000" stroke="black" stroke-width="2" fill="none"/>
    <path d="M 20.0000 149.2000 L 211.1000 149.2000" stroke="black" stroke-width="2" fill="none"/>
    <path d="M 211.1000 149.2000 L 211.1000 153.0000" stroke="black" stroke-width="2" fill="none"/>
    <path d="M 211.1000 153.0000 L 20.0000 153.0000" stroke="black" stroke-width="2" fill="none"/>
    <path d="M 20.0000 153.0000 L 20.0000 156.8000" stroke="black" stroke-width="2" fill="none"/>
    <path d="M 20.0000 156.8000 L 211.1000 156.8000" stroke="black" stroke-width="2" fill="none"/>
    <path d="M 211.1000 156.8000 L 211.1000 160.6000" stroke="black" stroke-width="2" fill="none"/>
    <path d="M 211.1000 160.6000 L 20.0000 160.6000" stroke="black" stroke-width="2" fill="none"/>
    <path d="M 20.0000 160.6000 L 20.0000 164.4000" stroke="black" stroke-width="2" fill="none"/>
    <path d="M 20.0000 164.4000 L 211.1000 164.4000" stroke="black" stroke-width="2" fill="none"/>
    <path d="M 211.1000 164.4000 L 211.1000 168.2000" stroke="black" stroke-width="2" fill="none"/>
    <path d="M 211.1000 168.2000 L 20.0000 168.2000" stroke="black" stroke-width="2" fill="none"/>
    <path d="M 20.0000 168.2000 L 20.0000 172.0000" stroke="black" stroke-width="2" fill="none"/>
    <path d="M 20.0000 172.0000 L 211.1000 172.0000" stroke="black" stroke-width="2" fill="none"/>
    <path d="M 211.1000 172.0000 L 211.1000 175.8000" stroke="black" stroke-width="2" fill="none"/>
    <path d="M 211.1000 175.8000 L 20.0000 175.8000" stroke="black" stroke-width="2" fill="none"/>
    <path d="M 20.0000 175.8000 L 20.0000 179.6000" stroke="black" stroke-width="2" fill="none"/>
    <path d="M 20.0000 179.6000 L 211.1000 179.6000" stroke="black" stroke-width="2" fill="none"/>
    <path d="M 211.1000 179.6000 L 211.1000 183.4000" stroke="black" stroke-width="2" fill="none"/>
    <path d="M 211.1000 183.4000 L 20.0000 183.4000" stroke="black" stroke-width="2" fill="none"/>
    <path d="M 20.0000 183.4000 L 20.0000 187.2000" stroke="black" stroke-width="2" fill="none"/>
    <path d="M 20.0000 187.2000 L 211.1000 187.2000" stroke="black" stroke-width="2" fill="none"/>
    <path d="M 211.1000 187.2000 L 211.1000 191.0000" stroke="black" stroke-width="2" fill="none"/>
    <path d="M 211.1000 191.0000 L 20.0000 191.0000" stroke="black" stroke-width="2" fill="none"/>
    <path d="M 20.0000 191.0000 L 20.0000 194.8000" stroke="black" stroke-width="2" fill="none"/>
    <path d="M 20.0000 194.8000 L 211.1000 194.8000" stroke="black" stroke-width="2" fill="none"/>
    <path d="M 211.1000 194.8000 L 211.1000 198.6000" stroke="black" stroke-width="2" fill="none"/>
    <path d="M 211.1000 198.6000 L 20.0000 198.6000" stroke="black" stroke-width="2" fill="none"/>
    <path d="M 20.0000 198.6000 L 20.0000 202.4000" stroke="black" stroke-width="2" fill="none"/>
    <path d="M 20.0000 202.4000 L 211.1000 202.4000" stroke="black" stroke-width="2" fill="none"/>
    <path d="M 211.1000 202.4000 L 211.1000 206.2000" stroke="black" stroke-width="2" fill="none"/>
    <path d="M 211.1000 206.2000 L 20.0000 206.2000" stroke="black" stroke-width="2" fill="none"/>
    <path d="M 20.0000 206.2000 L 20.0000 202.4000" stroke="black" stroke-width="2" fill="none"/>
    <path d="M 20.0000 202.4000 L 211.1000 202.4000" stroke="black" stroke-width="2" fill="none"/>
    <path d="M 211.1000 202.4000 L 211.1000 206.2000" stroke="black" stroke-width="2" fill="none"/>
    <path d="M 211.1000 206.2000 L 20.0000 206.2000" stroke="black" stroke-width="2" fill="none"/>
    <path d="M 20.0000 206.2000 L 20.0000 202.4000" stroke="black" stroke-width="2" fill="none"/>
    <path d="M 20.0000 198.6000 L 211.1000 198.6000" stroke="black" stroke-width="2" fill="none"/>
    <path d="M 211.1000 198.6000 L 211.1000 194.8000" stroke="black" stroke-width="2" fill="none"/>
    <path d="M 211.1000 194.8000 L 20.0000 194.8000" stroke="black" stroke-width="2" fill="none"/>
    <path d="M 20.0000 194.8000 L 20.0000 191.0000" stroke="black" stroke-width="2" fill="none"/>
    <path d="M 20.0000 191.0000 L 211.1000 191.0000" stroke="black" stroke-width="2" fill="none"/>
    <path d="M 211.1000 191.0000 L 211.1000 187.2000" stroke="black" stroke-width="2" fill="none"/>
    <path d="M 211.1000 187.2000 L 20.0000 187.2000" stroke="black" stroke-width="2" fill="none"/>
    <path d="M 20.0000 187.2000 L 20.0000 183.4000" stroke="black" stroke-width="2" fill="none"/>
    <path d="M 20.0000 183.4000 L 211.1000 183.4000" stroke="black" stroke-width="2" fill="none"/>
    <path d="M 211.1000 183.4000 L 211.1000 179.6000" stroke="black" stroke-width="2" fill="none"/>
    <path d="M 211.1000 179.6000 L 20.0000 179.6000" stroke="black" stroke-width="2" fill="none"/>
    <path d="M 20.0000 179.6000 L 20.0000 175.8000" stroke="black" stroke-width="2" fill="none"/>
    <path d="M 20.0000 175.8000 L 211.1000 175.8000" stroke="black" stroke-width="2" fill="none"/>
    <path d="M 211.1000 175.8000 L 211.1000 172.0000" stroke="black" stroke-width="2" fill="none"/>
    <path d="M 211.1000 172.0000 L 20.0000 172.0000" stroke="black" stroke-width="2" fill="none"/>
    <path d="M 20.0000 172.0000 L 20.0000 168.2000" stroke="black" stroke-width="2" fill="none"/>
    <path d="M 20.0000 168.2000 L 211.1000 168.2000" stroke="black" stroke-width="2" fill="none"/>
    <path d="M 211.1000 168.2000 L 211.1000 164.4000" stroke="black" stroke-width="2" fill="none"/>
    <path d="M 211.1000 164.4000 L 20.0000 164.4000" stroke="black" stroke-width="2" fill="none"/>
    <path d="M 20.0000 164.4000 L 20.0000 160.6000" stroke="black" stroke-width="2" fill="none"/>
    <path d="M 20.0000 160.6000 L 211.1000 160.6000" stroke="black" stroke-width="2" fill="none"/>
    <path d="M 211.1000 160.6000 L 211.1000 156.8000" stroke="black" stroke-width="2" fill="none"/>
    <path d="M 211.1000 156.8000 L 20.0000 156.8000" stroke="black" stroke-width="2" fill="none"/>
    <path d="M 20.0000 156.8000 L 20.0000 153.0000" stroke="black" stroke-width="2" fill="none"/>
    <path d="M 20.0000 153.0000 L 211.1000 153.0000" stroke="black" stroke-width="2" fill="none"/>
    <path d="M 211.1000 153.0000 L 211.1000 149.2000" stroke="black" stroke-width="2" fill="none"/>
    <path d="M 211.1000 149.2000 L 20.0000 149.2000" stroke="black" stroke-width="2" fill="none"/>
    <path d="M 20.0000 149.2000 L 20.0000 145.4000" stroke="black" stroke-width="2" fill="none"/>
    <path d="M 20.0000 145.4000 L 211.1000 145.4000" stroke="black" stroke-width="2" fill="none"/>
    <path d="M 211.1000 145.4000 L 211.1000 141.6000" stroke="black" stroke-width="2" fill="none"/>
    <path d="M 211.1000 141.6000 L 20.0000 141.6000" stroke="black" stroke-width="2" fill="none"/>
    <path d="M 20.0000 141.6000 L 20.0000 137.8000" stroke="black" stroke-width="2" fill="none"/>
    <path d="M 20.0000 137.8000 L 211.1000 137.8000" stroke="black" stroke-width="2" fill="none"/>
    <path d="M 211.1000 137.8000 L 211.1000 134.0000" stroke="black" stroke-width="2" fill="none"/>
    <path d="M 211.1000 134.0000 L 20.0000 134.0000" stroke="black" stroke-width="2" fill="none"/>
    <path d="M 20.0000 134.0000 L 20.0000 130.2000" stroke="black" stroke-width="2" fill="none"/>
    <path d="M 20.0000 130.2000 L 211.1000 130.2000" stroke="black" stroke-width="2" fill="none"/>
    <path d="M 211.1000 130.2000 L 211.1000 126.4000" stroke="black" stroke-width="2" fill="none"/>
    <path d="M 211.1000 126.4000 L 20.0000 126.4000" stroke="black" stroke-width="2" fill="none"/>
    <path d="M 20.0000 126.4000 L 20.0000 122.6000" stroke="black" stroke-width="2" fill="none"/>
    <path d="M 20.0000 122.6000 L 211.1000 122.6000" stroke="black" stroke-width="2" fill="none"/>
    <path d="M 211.1000 122.6000 L 211.1000 118.8000" stroke="black" stroke-width="2" fill="none"/>
    <path d="M 211.1000 118.8000 L 20.0000 118.8000" stroke="black" stroke-width="2" fill="none"/>
    <path d="M 20.0000 118.8000 L 20.0000 115.0000" stroke="black" stroke-width="2" fill="none"/>
    <path d="M 20.0000 115.0000 L 211.1000 115.0000" stroke="black" stroke-width="2" fill="none"/>
    <path d="M 211.1000 115.0000 L 211.1000 111.2000" stroke="black" stroke-width="2" fill="none"/>
    <path d="M 211.1000 111.2000 L 20.0000 111.2000" stroke="black" stroke-width="2" fill="none"/>
    <path d="M 20.0000 111.2000 L 20.0000 107.4000" stroke="black" stroke-width="2" fill="none"/>
    <path d="M 20.0000 107.4000 L 211.1000 107.4000" stroke="black" stroke-width="2" fill="none"/>
    <path d="M 211.1000 107.4000 L 211.1000 103.6000" stroke="black" stroke-width="2" fill="none"/>
    <path d="M 211.1000 103.6000 L 20.0000 103.6000" stroke="black" stroke-width="2" fill="none"/>
    <path d="M 20.0000 103.6000 L 20.0000 99.8000" stroke="black" stroke-width="2" fill="none"/>
    <path d="M 20.0000 99.8000 L 211.1000 99.8000" stroke="black" stroke-width="2" fill="none"/>
    <path d="M 211.1000 99.8000 L 211.1000 96.0000" stroke="black" stroke-width="2" fill="none"/>
    <path d="M 211.1000 96.0000 L 20.0000 96.0000" stroke="black" stroke-width="2" fill="none"/>
    <path d="M 20.0000 96.0000 L 20.0000 92.2000" stroke="black" stroke-width="2" fill="none"/>
    <path d="M 20.0000 92.2000 L 211.1000 92.2000" stroke="black" stroke-width="2" fill="none"/>
    <path d="M 211.1000 92.2000 L 211.1000 88.4000" stroke="black" stroke-width="2" fill="none"/>
    <path d="M 211.1000 88.4000 L 20.0000 88.4000" stroke="black" stroke-width="2" fill="none"/>
    <path d="M 20.0000 88.4000 L 20.0000 84.6000" stroke="black" stroke-width="2" fill="none"/>
    <path d="M 20.0000 84.6000 L 211.1000 84.6000" stroke="black" stroke-width="2" fill="none"/>
    <path d="M 211.1000 84.6000 L 211.1000 80.8000" stroke="black" stroke-width="2" fill="none"/>
    <path d="M 211.1000 80.8000 L 20.0000 80.8000" stroke="black" stroke-width="2" fill="none"/>
    <path d="M 20.0000 80.8000 L 20.0000 77.0000" stroke="black" stroke-width="2" fill="none"/>
    <path d="M 20.0000 77.0000 L 211.1000 77.0000" stroke="black" stroke-width="2" fill="none"/>
    <path d="M 211.1000 77.0000 L 211.1000 73.2000" stroke="black" stroke-width="2" fill="none"/>
    <path d="M 211.1000 73.2000 L 20.0000 73.2000" stroke="black" stroke-width="2" fill="none"/>
    <path d="M 20.0000 73.2000 L 20.0000 69.4000" stroke="black" stroke-width="2" fill="none"/>
    <path d="M 20.0000 69.4000 L 211.1000 69.4000" stroke="black" stroke-width="2" fill="none"/>
    <path d="M 211.1000 69.4000 L 211.1000 65.6000" stroke="black" stroke-width="2" fill="none"/>
    <path d="M 211.1000 65.6000 L 20.0000 65.6000" stroke="black" stroke-width="2" fill="none"/>
    <path d="M 20.0000 65.6000 L 20.0000 61.8000" stroke="black" stroke-width="2" fill="none"/>
    <path d="M 20.0000 61.8000 L 211.1000 61.8000" stroke="black" stroke-width="2" fill="none"/>
    <path d="M 211.1000 61.8000 L 211.1000 58.0000" stroke="black" stroke-width="2" fill="none"/>
    <path d="M 211.1000 58.0000 L 20.0000 58.0000" stroke="black" stroke-width="2" fill="none"/>
    <path d="M 20.0000 58.0000 L 20.0000 54.2000" stroke="black" stroke-width="2" fill="none"/>
    <path d="M 20.0000 54.2000 L 211.1000 54.2000" stroke="black" stroke-width="2" fill="none"/>
    <path d="M 211.1000 54.2000 L 211.1000 50.4000" stroke="black" stroke-width="2" fill="none"/>
    <path d="M 211.1000 50.4000 L 20.0000 50.4000" stroke="black" stroke-width="2" fill="none"/>
    <path d="M 20.0000 50.4000 L 20.0000 46.6000" stroke="black" stroke-width="2" fill="none"/>
    <path d="M 20.0000 46.6000 L 211.1000 46.6000" stroke="black" stroke-width="2" fill="none"/>
    <path d="M 211.1000 46.6000 L 211.1000 42.8000" stroke="black" stroke-width="2" fill="none"/>
    <path d="M 211.1000 42.8000 L 20.0000 42.8000" stroke="black" stroke-width="2" fill="none"/>
    <path d="M 20.0000 42.8000 L 20.0000 39.0000" stroke="black" stroke-width="2" fill="none"/>
    <path d="M 20.0000 39.0000 L 211.1000 39.0000" stroke="black" stroke-width="2" fill="none"/>
    <path d="M 211.1000 39.0000 L 211.1000 35.2000" stroke="black" stroke-width="2" fill="none"/>
    <path d="M 211.1000 35.2000 L 20.0000 35.2000" stroke="black" stroke-width="2" fill="none"/>
    <path d="M 20.0000 35.2000 L 20.0000 31.4000" stroke="black" stroke-width="2" fill="none"/>
    <path d="M 20.0000 31.4000 L 211.1000 31.4000" stroke="black" stroke-width="2" fill="none"/>
    <path d="M 211.1000 31.4000 L 211.1000 27.6000" stroke="black" stroke-width="2" fill="none"/>
    <path d="M 211.1000 27.6000 L 20.0000 27.6000" stroke="black" stroke-width="2" fill="none"/>
    <path d="M 20.0000 27.6000 L 20.0000 23.8000" stroke="black" stroke-width="2" fill="none"/>
    <path d="M 20.0000 23.8000 L 211.1000 23.8000" stroke="black" stroke-width="2" fill="none"/>
    <path d="M 211.1000 23.8000 L 211.1000 20.0000" stroke="black" stroke-width="2" fill="none"/>
    <path d="M 211.1000 20.0000 L 20.0000 20.0000" stroke="black" stroke-width="2" fill="none"/>
    <path d="M 20.0000 20.0000 L 20.0000 23.8000" stroke="black" stroke-width="2" fill="none"/>
    <path d="M 20.0000 23.8000 L 211.1000 23.8000" stroke="black" stroke-width="2" fill="none"/>
    <path d="M 211.1000 23.8000 L 211.1000 20.0000" stroke="black" stroke-width="2" fill="none"/>
    <path d="M 211.1000 20.0000 L 20.0000 20.0000" stroke="black" stroke-width="2" fill="none"/>
    <path d="M 20.0000 20.0000 L 20.0000 23.8000" stroke="black" stroke-width="2" fill="none"/>
    <path d="M 20.0000 113.1000 L 20.0000 113.1000" stroke="black" stroke-width="2" fill="none"/>
  </g>
  
  <!-- Professional annotations -->
  <text x="20" y="30" class="title-text">DEBUG MODE</text>
  <text x="20" y="70" class="label-text">DEBUG INFORMATION:</text>
  <text x="20" y="85" class="dimension-text">Segment Count: 201</text>
  <text x="20" y="100" class="dimension-text">Total Length: 194.900"</text>
  <text x="20" y="115" class="dimension-text">Bounds: 1.911" x 1.862"</text>
  <line x1="-75.6" y1="236.2" x2="115.5" y2="236.2" class="dimension-line"/>
  <line x1="-75.6" y1="231.2" x2="-75.6" y2="241.2" class="dimension-line"/>
  <line x1="115.5" y1="231.2" x2="115.5" y2="241.2" class="dimension-line"/>
  <line x1="145.6" y1="206.2" x2="145.6" y2="20.0" class="dimension-line"/>
  <line x1="140.6" y1="206.2" x2="150.6" y2="206.2" class="dimension-line"/>
  <line x1="140.6" y1="20.0" x2="150.6" y2="20.0" class="dimension-line"/>
  
  <!-- Origin marker (feed point) -->
  <circle cx="20.0" cy="113.1" r="8" class="feed-point"/>
  <text x="35.0" y="113.1" class="label-text">FEED POINT</text>
  
</svg>