<?xml version="1.0" encoding="UTF-8"?>
<svg width="281.1" height="751.0" viewBox="0 0 281.1 751.0" xmlns="http://www.w3.org/2000/svg">
  <title>Professional PCB Antenna Design - Laser Etching Ready</title>
  <desc>Log-Periodic Antenna for TV VHF Bands - Generated by Mini Antenna Designer</desc>
  
  <defs>
    <style>
      .dimension-text { font-family: Arial, sans-serif; font-size: 12px; fill: #333; }
      .label-text { font-family: Arial, sans-serif; font-size: 14px; font-weight: bold; fill: #000; }
      .title-text { font-family: Arial, sans-serif; font-size: 18px; font-weight: bold; fill: #000; }
      .subtitle-text { font-family: Arial, sans-serif; font-size: 12px; fill: #666; }
      .dimension-line { stroke: #666; stroke-width: 1; fill: none; }
      .feed-point { fill: red; stroke: darkred; stroke-width: 2; }
    </style>
  </defs>
  
  <!-- Background -->
  <rect width="281.1" height="751.0" fill="white" stroke="black" stroke-width="2"/>
  
  <!-- Grid lines for alignment (optional) -->
  <g stroke="#e0e0e0" stroke-width="0.5" opacity="0.5">
    <line x1="0" y1="0" x2="0" y2="751.0000000000001"/>
    <line x1="0" y1="0" x2="281.1" y2="0"/>
    <line x1="0" y1="500" x2="281.1" y2="500"/>
  </g>
  
  <!-- Antenna wire segments -->
  <g stroke-linecap="round" stroke-linejoin="round" id="antenna-traces">
    <path d="M 20.0000 20.0000 L 211.1000 20.0000" stroke="black" stroke-width="2.0" fill="none"/>
    <path d="M 211.1000 20.0000 L 211.1000 35.8000" stroke="black" stroke-width="2.0" fill="none"/>
    <path d="M 211.1000 35.8000 L 20.0000 35.8000" stroke="black" stroke-width="2.0" fill="none"/>
    <path d="M 20.0000 35.8000 L 20.0000 51.6000" stroke="black" stroke-width="2.0" fill="none"/>
    <path d="M 20.0000 51.6000 L 211.1000 51.6000" stroke="black" stroke-width="2.0" fill="none"/>
    <path d="M 211.1000 51.6000 L 211.1000 67.4000" stroke="black" stroke-width="2.0" fill="none"/>
    <path d="M 211.1000 67.4000 L 20.0000 67.4000" stroke="black" stroke-width="2.0" fill="none"/>
    <path d="M 20.0000 67.4000 L 20.0000 83.2000" stroke="black" stroke-width="2.0" fill="none"/>
    <path d="M 20.0000 83.2000 L 211.1000 83.2000" stroke="black" stroke-width="2.0" fill="none"/>
    <path d="M 211.1000 83.2000 L 211.1000 99.0000" stroke="black" stroke-width="2.0" fill="none"/>
    <path d="M 211.1000 99.0000 L 20.0000 99.0000" stroke="black" stroke-width="2.0" fill="none"/>
    <path d="M 20.0000 99.0000 L 20.0000 114.8000" stroke="black" stroke-width="2.0" fill="none"/>
    <path d="M 20.0000 114.8000 L 211.1000 114.8000" stroke="black" stroke-width="2.0" fill="none"/>
    <path d="M 211.1000 114.8000 L 211.1000 130.6000" stroke="black" stroke-width="2.0" fill="none"/>
    <path d="M 211.1000 130.6000 L 20.0000 130.6000" stroke="black" stroke-width="2.0" fill="none"/>
    <path d="M 20.0000 130.6000 L 20.0000 146.4000" stroke="black" stroke-width="2.0" fill="none"/>
    <path d="M 20.0000 146.4000 L 211.1000 146.4000" stroke="black" stroke-width="2.0" fill="none"/>
    <path d="M 211.1000 146.4000 L 211.1000 162.2000" stroke="black" stroke-width="2.0" fill="none"/>
    <path d="M 211.1000 162.2000 L 20.0000 162.2000" stroke="black" stroke-width="2.0" fill="none"/>
    <path d="M 20.0000 162.2000 L 20.0000 178.0000" stroke="black" stroke-width="2.0" fill="none"/>
    <path d="M 20.0000 178.0000 L 211.1000 178.0000" stroke="black" stroke-width="2.0" fill="none"/>
    <path d="M 211.1000 178.0000 L 211.1000 193.8000" stroke="black" stroke-width="2.0" fill="none"/>
    <path d="M 211.1000 193.8000 L 20.0000 193.8000" stroke="black" stroke-width="2.0" fill="none"/>
    <path d="M 20.0000 193.8000 L 20.0000 209.6000" stroke="black" stroke-width="2.0" fill="none"/>
    <path d="M 20.0000 209.6000 L 211.1000 209.6000" stroke="black" stroke-width="2.0" fill="none"/>
    <path d="M 211.1000 209.6000 L 211.1000 225.4000" stroke="black" stroke-width="2.0" fill="none"/>
    <path d="M 211.1000 225.4000 L 20.0000 225.4000" stroke="black" stroke-width="2.0" fill="none"/>
    <path d="M 20.0000 225.4000 L 20.0000 241.2000" stroke="black" stroke-width="2.0" fill="none"/>
    <path d="M 20.0000 241.2000 L 211.1000 241.2000" stroke="black" stroke-width="2.0" fill="none"/>
    <path d="M 211.1000 241.2000 L 211.1000 257.0000" stroke="black" stroke-width="2.0" fill="none"/>
    <path d="M 211.1000 257.0000 L 20.0000 257.0000" stroke="black" stroke-width="2.0" fill="none"/>
    <path d="M 20.0000 257.0000 L 20.0000 272.8000" stroke="black" stroke-width="2.0" fill="none"/>
    <path d="M 20.0000 272.8000 L 211.1000 272.8000" stroke="black" stroke-width="2.0" fill="none"/>
    <path d="M 211.1000 272.8000 L 211.1000 288.6000" stroke="black" stroke-width="2.0" fill="none"/>
    <path d="M 211.1000 288.6000 L 20.0000 288.6000" stroke="black" stroke-width="2.0" fill="none"/>
    <path d="M 20.0000 288.6000 L 20.0000 304.4000" stroke="black" stroke-width="2.0" fill="none"/>
    <path d="M 20.0000 304.4000 L 211.1000 304.4000" stroke="black" stroke-width="2.0" fill="none"/>
    <path d="M 211.1000 304.4000 L 211.1000 320.2000" stroke="black" stroke-width="2.0" fill="none"/>
    <path d="M 211.1000 320.2000 L 20.0000 320.2000" stroke="black" stroke-width="2.0" fill="none"/>
    <path d="M 20.0000 320.2000 L 20.0000 336.0000" stroke="black" stroke-width="2.0" fill="none"/>
    <path d="M 20.0000 336.0000 L 211.1000 336.0000" stroke="black" stroke-width="2.0" fill="none"/>
    <path d="M 211.1000 336.0000 L 211.1000 351.8000" stroke="black" stroke-width="2.0" fill="none"/>
    <path d="M 211.1000 351.8000 L 20.0000 351.8000" stroke="black" stroke-width="2.0" fill="none"/>
    <path d="M 20.0000 351.8000 L 20.0000 367.6000" stroke="black" stroke-width="2.0" fill="none"/>
    <path d="M 20.0000 367.6000 L 211.1000 367.6000" stroke="black" stroke-width="2.0" fill="none"/>
    <path d="M 211.1000 367.6000 L 211.1000 383.4000" stroke="black" stroke-width="2.0" fill="none"/>
    <path d="M 211.1000 383.4000 L 20.0000 383.4000" stroke="black" stroke-width="2.0" fill="none"/>
    <path d="M 20.0000 383.4000 L 20.0000 399.2000" stroke="black" stroke-width="2.0" fill="none"/>
    <path d="M 20.0000 399.2000 L 211.1000 399.2000" stroke="black" stroke-width="2.0" fill="none"/>
    <path d="M 211.1000 399.2000 L 211.1000 415.0000" stroke="black" stroke-width="2.0" fill="none"/>
    <path d="M 211.1000 415.0000 L 20.0000 415.0000" stroke="black" stroke-width="2.0" fill="none"/>
    <path d="M 20.0000 415.0000 L 20.0000 430.8000" stroke="black" stroke-width="2.0" fill="none"/>
    <path d="M 20.0000 430.8000 L 211.1000 430.8000" stroke="black" stroke-width="2.0" fill="none"/>
    <path d="M 211.1000 430.8000 L 211.1000 446.6000" stroke="black" stroke-width="2.0" fill="none"/>
    <path d="M 211.1000 446.6000 L 20.0000 446.6000" stroke="black" stroke-width="2.0" fill="none"/>
    <path d="M 20.0000 446.6000 L 20.0000 462.4000" stroke="black" stroke-width="2.0" fill="none"/>
    <path d="M 20.0000 462.4000 L 211.1000 462.4000" stroke="black" stroke-width="2.0" fill="none"/>
    <path d="M 211.1000 462.4000 L 211.1000 478.2000" stroke="black" stroke-width="2.0" fill="none"/>
    <path d="M 20.0000 731.0000 L 211.1000 731.0000" stroke="black" stroke-width="2.0" fill="none"/>
    <path d="M 211.1000 731.0000 L 211.1000 715.2000" stroke="black" stroke-width="2.0" fill="none"/>
    <path d="M 211.1000 715.2000 L 20.0000 715.2000" stroke="black" stroke-width="2.0" fill="none"/>
    <path d="M 20.0000 715.2000 L 20.0000 699.4000" stroke="black" stroke-width="2.0" fill="none"/>
    <path d="M 20.0000 699.4000 L 211.1000 699.4000" stroke="black" stroke-width="2.0" fill="none"/>
    <path d="M 211.1000 699.4000 L 211.1000 683.6000" stroke="black" stroke-width="2.0" fill="none"/>
    <path d="M 211.1000 683.6000 L 20.0000 683.6000" stroke="black" stroke-width="2.0" fill="none"/>
    <path d="M 20.0000 683.6000 L 20.0000 667.8000" stroke="black" stroke-width="2.0" fill="none"/>
    <path d="M 20.0000 667.8000 L 211.1000 667.8000" stroke="black" stroke-width="2.0" fill="none"/>
    <path d="M 211.1000 667.8000 L 211.1000 652.0000" stroke="black" stroke-width="2.0" fill="none"/>
    <path d="M 211.1000 652.0000 L 20.0000 652.0000" stroke="black" stroke-width="2.0" fill="none"/>
    <path d="M 20.0000 652.0000 L 20.0000 636.2000" stroke="black" stroke-width="2.0" fill="none"/>
    <path d="M 20.0000 636.2000 L 211.1000 636.2000" stroke="black" stroke-width="2.0" fill="none"/>
    <path d="M 211.1000 636.2000 L 211.1000 620.4000" stroke="black" stroke-width="2.0" fill="none"/>
    <path d="M 211.1000 620.4000 L 20.0000 620.4000" stroke="black" stroke-width="2.0" fill="none"/>
    <path d="M 20.0000 620.4000 L 20.0000 604.6000" stroke="black" stroke-width="2.0" fill="none"/>
    <path d="M 20.0000 604.6000 L 211.1000 604.6000" stroke="black" stroke-width="2.0" fill="none"/>
    <path d="M 211.1000 604.6000 L 211.1000 588.8000" stroke="black" stroke-width="2.0" fill="none"/>
    <path d="M 211.1000 588.8000 L 20.0000 588.8000" stroke="black" stroke-width="2.0" fill="none"/>
    <path d="M 20.0000 588.8000 L 20.0000 573.0000" stroke="black" stroke-width="2.0" fill="none"/>
    <path d="M 20.0000 573.0000 L 211.1000 573.0000" stroke="black" stroke-width="2.0" fill="none"/>
    <path d="M 211.1000 573.0000 L 211.1000 557.2000" stroke="black" stroke-width="2.0" fill="none"/>
    <path d="M 211.1000 557.2000 L 20.0000 557.2000" stroke="black" stroke-width="2.0" fill="none"/>
    <path d="M 20.0000 557.2000 L 20.0000 541.4000" stroke="black" stroke-width="2.0" fill="none"/>
    <path d="M 20.0000 541.4000 L 211.1000 541.4000" stroke="black" stroke-width="2.0" fill="none"/>
    <path d="M 211.1000 541.4000 L 211.1000 525.6000" stroke="black" stroke-width="2.0" fill="none"/>
    <path d="M 211.1000 525.6000 L 20.0000 525.6000" stroke="black" stroke-width="2.0" fill="none"/>
    <path d="M 20.0000 525.6000 L 20.0000 509.8000" stroke="black" stroke-width="2.0" fill="none"/>
    <path d="M 20.0000 509.8000 L 211.1000 509.8000" stroke="black" stroke-width="2.0" fill="none"/>
    <path d="M 211.1000 509.8000 L 211.1000 494.0000" stroke="black" stroke-width="2.0" fill="none"/>
    <path d="M 211.1000 494.0000 L 20.0000 494.0000" stroke="black" stroke-width="2.0" fill="none"/>
    <path d="M 20.0000 494.0000 L 20.0000 478.2000" stroke="black" stroke-width="2.0" fill="none"/>
    <path d="M 20.0000 478.2000 L 211.1000 478.2000" stroke="black" stroke-width="2.0" fill="none"/>
    <path d="M 211.1000 478.2000 L 211.1000 462.4000" stroke="black" stroke-width="2.0" fill="none"/>
    <path d="M 211.1000 462.4000 L 20.0000 462.4000" stroke="black" stroke-width="2.0" fill="none"/>
    <path d="M 20.0000 462.4000 L 20.0000 446.6000" stroke="black" stroke-width="2.0" fill="none"/>
    <path d="M 20.0000 446.6000 L 211.1000 446.6000" stroke="black" stroke-width="2.0" fill="none"/>
    <path d="M 211.1000 446.6000 L 211.1000 430.8000" stroke="black" stroke-width="2.0" fill="none"/>
    <path d="M 211.1000 430.8000 L 20.0000 430.8000" stroke="black" stroke-width="2.0" fill="none"/>
    <path d="M 20.0000 430.8000 L 20.0000 415.0000" stroke="black" stroke-width="2.0" fill="none"/>
    <path d="M 20.0000 415.0000 L 211.1000 415.0000" stroke="black" stroke-width="2.0" fill="none"/>
    <path d="M 211.1000 415.0000 L 211.1000 399.2000" stroke="black" stroke-width="2.0" fill="none"/>
    <path d="M 211.1000 399.2000 L 20.0000 399.2000" stroke="black" stroke-width="2.0" fill="none"/>
    <path d="M 20.0000 399.2000 L 20.0000 383.4000" stroke="black" stroke-width="2.0" fill="none"/>
    <path d="M 20.0000 383.4000 L 211.1000 383.4000" stroke="black" stroke-width="2.0" fill="none"/>
    <path d="M 211.1000 383.4000 L 211.1000 367.6000" stroke="black" stroke-width="2.0" fill="none"/>
    <path d="M 211.1000 367.6000 L 20.0000 367.6000" stroke="black" stroke-width="2.0" fill="none"/>
    <path d="M 20.0000 367.6000 L 20.0000 351.8000" stroke="black" stroke-width="2.0" fill="none"/>
    <path d="M 20.0000 351.8000 L 211.1000 351.8000" stroke="black" stroke-width="2.0" fill="none"/>
    <path d="M 211.1000 351.8000 L 211.1000 336.0000" stroke="black" stroke-width="2.0" fill="none"/>
    <path d="M 211.1000 336.0000 L 20.0000 336.0000" stroke="black" stroke-width="2.0" fill="none"/>
    <path d="M 20.0000 336.0000 L 20.0000 320.2000" stroke="black" stroke-width="2.0" fill="none"/>
    <path d="M 20.0000 320.2000 L 211.1000 320.2000" stroke="black" stroke-width="2.0" fill="none"/>
    <path d="M 211.1000 320.2000 L 211.1000 304.4000" stroke="black" stroke-width="2.0" fill="none"/>
    <path d="M 211.1000 304.4000 L 20.0000 304.4000" stroke="black" stroke-width="2.0" fill="none"/>
    <path d="M 20.0000 304.4000 L 20.0000 288.6000" stroke="black" stroke-width="2.0" fill="none"/>
    <path d="M 20.0000 288.6000 L 211.1000 288.6000" stroke="black" stroke-width="2.0" fill="none"/>
    <path d="M 211.1000 288.6000 L 211.1000 272.8000" stroke="black" stroke-width="2.0" fill="none"/>
    <path d="M 20.0000 375.5000 L 20.0000 375.5000" stroke="black" stroke-width="2.0" fill="none"/>
  </g>
  
  <!-- Professional annotations -->
  <text x="20" y="30" class="title-text">LOG-PERIODIC TV ANTENNA</text>
  <text x="20" y="90" class="label-text">DIMENSIONS:</text>
  <text x="20" y="105" class="dimension-text">Design Width: 1.911 inches (1911 mils)</text>
  <text x="20" y="120" class="dimension-text">Design Height: 7.110 inches (7110 mils)</text>
  <text x="20" y="150" class="label-text">MANUFACTURING:</text>
  <text x="20" y="165" class="dimension-text">Trace Width: 10-20 mil (laser etching)</text>
  <text x="20" y="180" class="dimension-text">Substrate: 4.0" x 8.0" FR-4 PCB</text>
  <text x="20" y="195" class="dimension-text">Scale: 1:1 (ready for production)</text>
  <line x1="-75.6" y1="761.0" x2="115.5" y2="761.0" class="dimension-line"/>
  <line x1="-75.6" y1="756.0" x2="-75.6" y2="766.0" class="dimension-line"/>
  <line x1="115.5" y1="756.0" x2="115.5" y2="766.0" class="dimension-line"/>
  <line x1="145.6" y1="731.0" x2="145.6" y2="20.0" class="dimension-line"/>
  <line x1="140.6" y1="731.0" x2="150.6" y2="731.0" class="dimension-line"/>
  <line x1="140.6" y1="20.0" x2="150.6" y2="20.0" class="dimension-line"/>
  
  <!-- Origin marker (feed point) -->
  <circle cx="20.0" cy="375.5" r="8" class="feed-point"/>
  <text x="35.0" y="375.5" class="label-text">FEED POINT</text>
  
</svg>