<?xml version="1.0" encoding="UTF-8"?>
<svg width="261.0" height="191.2" viewBox="0 0 261.0 191.2" xmlns="http://www.w3.org/2000/svg">
  <title>Professional PCB Antenna Design - Laser Etching Ready</title>
  <desc>Log-Periodic Antenna for TV VHF Bands - Generated by Mini Antenna Designer</desc>
  
  <defs>
    <style>
      .dimension-text { font-family: Arial, sans-serif; font-size: 12px; fill: #333; }
      .label-text { font-family: Arial, sans-serif; font-size: 14px; font-weight: bold; fill: #000; }
      .title-text { font-family: Arial, sans-serif; font-size: 18px; font-weight: bold; fill: #000; }
      .subtitle-text { font-family: Arial, sans-serif; font-size: 12px; fill: #666; }
      .dimension-line { stroke: #666; stroke-width: 1; fill: none; }
      .feed-point { fill: red; stroke: darkred; stroke-width: 2; }
    </style>
  </defs>
  
  <!-- Background -->
  <rect width="261.0" height="191.2" fill="white" stroke="black" stroke-width="2"/>
  
  <!-- Grid lines for alignment (optional) -->
  <g stroke="#e0e0e0" stroke-width="0.5" opacity="0.5">
    <line x1="0" y1="0" x2="0" y2="191.18"/>
    <line x1="0" y1="0" x2="261.0" y2="0"/>
  </g>
  
  <!-- Antenna wire segments -->
  <g stroke-linecap="round" stroke-linejoin="round" id="antenna-traces">
    <path d="M 20.0000 95.5900 L 191.0000 95.5900" stroke="black" stroke-width="3.15" fill="none"/>
    <path d="M 191.0000 95.5900 L 191.0000 86.1400" stroke="black" stroke-width="3.15" fill="none"/>
    <path d="M 191.0000 86.1400 L 20.0000 86.1400" stroke="black" stroke-width="3.15" fill="none"/>
    <path d="M 20.0000 86.1400 L 20.0000 76.6900" stroke="black" stroke-width="3.15" fill="none"/>
    <path d="M 20.0000 76.6900 L 191.0000 76.6900" stroke="black" stroke-width="3.15" fill="none"/>
    <path d="M 191.0000 76.6900 L 191.0000 67.2400" stroke="black" stroke-width="3.15" fill="none"/>
    <path d="M 191.0000 67.2400 L 20.0000 67.2400" stroke="black" stroke-width="3.15" fill="none"/>
    <path d="M 20.0000 67.2400 L 20.0000 57.7900" stroke="black" stroke-width="3.15" fill="none"/>
    <path d="M 20.0000 57.7900 L 191.0000 57.7900" stroke="black" stroke-width="3.15" fill="none"/>
    <path d="M 191.0000 57.7900 L 191.0000 48.3500" stroke="black" stroke-width="3.15" fill="none"/>
    <path d="M 191.0000 48.3500 L 20.0000 48.3500" stroke="black" stroke-width="3.15" fill="none"/>
    <path d="M 20.0000 48.3500 L 20.0000 38.9000" stroke="black" stroke-width="3.15" fill="none"/>
    <path d="M 20.0000 38.9000 L 191.0000 38.9000" stroke="black" stroke-width="3.15" fill="none"/>
    <path d="M 191.0000 38.9000 L 191.0000 29.4500" stroke="black" stroke-width="3.15" fill="none"/>
    <path d="M 191.0000 29.4500 L 20.0000 29.4500" stroke="black" stroke-width="3.15" fill="none"/>
    <path d="M 20.0000 29.4500 L 20.0000 20.0000" stroke="black" stroke-width="3.15" fill="none"/>
    <path d="M 20.0000 20.0000 L 191.0000 20.0000" stroke="black" stroke-width="3.15" fill="none"/>
    <path d="M 20.0000 95.5900 L 191.0000 95.5900" stroke="black" stroke-width="3.15" fill="none"/>
    <path d="M 191.0000 95.5900 L 191.0000 105.0400" stroke="black" stroke-width="3.15" fill="none"/>
    <path d="M 191.0000 105.0400 L 20.0000 105.0400" stroke="black" stroke-width="3.15" fill="none"/>
    <path d="M 20.0000 105.0400 L 20.0000 114.4900" stroke="black" stroke-width="3.15" fill="none"/>
    <path d="M 20.0000 114.4900 L 191.0000 114.4900" stroke="black" stroke-width="3.15" fill="none"/>
    <path d="M 191.0000 114.4900 L 191.0000 123.9400" stroke="black" stroke-width="3.15" fill="none"/>
    <path d="M 191.0000 123.9400 L 20.0000 123.9400" stroke="black" stroke-width="3.15" fill="none"/>
    <path d="M 20.0000 123.9400 L 20.0000 133.3900" stroke="black" stroke-width="3.15" fill="none"/>
    <path d="M 20.0000 133.3900 L 191.0000 133.3900" stroke="black" stroke-width="3.15" fill="none"/>
    <path d="M 191.0000 133.3900 L 191.0000 142.8300" stroke="black" stroke-width="3.15" fill="none"/>
    <path d="M 191.0000 142.8300 L 20.0000 142.8300" stroke="black" stroke-width="3.15" fill="none"/>
    <path d="M 20.0000 142.8300 L 20.0000 152.2800" stroke="black" stroke-width="3.15" fill="none"/>
    <path d="M 20.0000 152.2800 L 191.0000 152.2800" stroke="black" stroke-width="3.15" fill="none"/>
    <path d="M 191.0000 152.2800 L 191.0000 161.7300" stroke="black" stroke-width="3.15" fill="none"/>
    <path d="M 191.0000 161.7300 L 20.0000 161.7300" stroke="black" stroke-width="3.15" fill="none"/>
    <path d="M 20.0000 161.7300 L 20.0000 171.1800" stroke="black" stroke-width="3.15" fill="none"/>
    <path d="M 20.0000 171.1800 L 191.0000 171.1800" stroke="black" stroke-width="3.15" fill="none"/>
    <path d="M 20.0000 95.5900 L 20.0000 95.5900" stroke="black" stroke-width="3.15" fill="none"/>
    <path d="M 20.0000 95.5900 L 191.0000 95.5900" stroke="black" stroke-width="3.15" fill="none"/>
    <path d="M 191.0000 95.5900 L 191.0000 86.1400" stroke="black" stroke-width="3.15" fill="none"/>
    <path d="M 191.0000 86.1400 L 20.0000 86.1400" stroke="black" stroke-width="3.15" fill="none"/>
    <path d="M 20.0000 86.1400 L 20.0000 76.6900" stroke="black" stroke-width="3.15" fill="none"/>
    <path d="M 20.0000 76.6900 L 191.0000 76.6900" stroke="black" stroke-width="3.15" fill="none"/>
    <path d="M 191.0000 76.6900 L 191.0000 67.2400" stroke="black" stroke-width="3.15" fill="none"/>
    <path d="M 191.0000 67.2400 L 20.0000 67.2400" stroke="black" stroke-width="3.15" fill="none"/>
    <path d="M 20.0000 67.2400 L 20.0000 57.7900" stroke="black" stroke-width="3.15" fill="none"/>
    <path d="M 20.0000 57.7900 L 191.0000 57.7900" stroke="black" stroke-width="3.15" fill="none"/>
    <path d="M 191.0000 57.7900 L 191.0000 48.3500" stroke="black" stroke-width="3.15" fill="none"/>
    <path d="M 191.0000 48.3500 L 20.0000 48.3500" stroke="black" stroke-width="3.15" fill="none"/>
    <path d="M 20.0000 48.3500 L 20.0000 38.9000" stroke="black" stroke-width="3.15" fill="none"/>
    <path d="M 20.0000 38.9000 L 191.0000 38.9000" stroke="black" stroke-width="3.15" fill="none"/>
    <path d="M 191.0000 38.9000 L 191.0000 29.4500" stroke="black" stroke-width="3.15" fill="none"/>
    <path d="M 191.0000 29.4500 L 20.0000 29.4500" stroke="black" stroke-width="3.15" fill="none"/>
    <path d="M 20.0000 95.5900 L 191.0000 95.5900" stroke="black" stroke-width="3.15" fill="none"/>
    <path d="M 191.0000 95.5900 L 191.0000 105.0400" stroke="black" stroke-width="3.15" fill="none"/>
    <path d="M 191.0000 105.0400 L 20.0000 105.0400" stroke="black" stroke-width="3.15" fill="none"/>
    <path d="M 20.0000 105.0400 L 20.0000 114.4900" stroke="black" stroke-width="3.15" fill="none"/>
    <path d="M 20.0000 114.4900 L 191.0000 114.4900" stroke="black" stroke-width="3.15" fill="none"/>
    <path d="M 191.0000 114.4900 L 191.0000 123.9400" stroke="black" stroke-width="3.15" fill="none"/>
    <path d="M 191.0000 123.9400 L 20.0000 123.9400" stroke="black" stroke-width="3.15" fill="none"/>
    <path d="M 20.0000 123.9400 L 20.0000 133.3900" stroke="black" stroke-width="3.15" fill="none"/>
    <path d="M 20.0000 133.3900 L 191.0000 133.3900" stroke="black" stroke-width="3.15" fill="none"/>
    <path d="M 191.0000 133.3900 L 191.0000 142.8300" stroke="black" stroke-width="3.15" fill="none"/>
    <path d="M 191.0000 142.8300 L 20.0000 142.8300" stroke="black" stroke-width="3.15" fill="none"/>
    <path d="M 20.0000 142.8300 L 20.0000 152.2800" stroke="black" stroke-width="3.15" fill="none"/>
    <path d="M 20.0000 152.2800 L 191.0000 152.2800" stroke="black" stroke-width="3.15" fill="none"/>
    <path d="M 191.0000 152.2800 L 191.0000 161.7300" stroke="black" stroke-width="3.15" fill="none"/>
    <path d="M 191.0000 161.7300 L 20.0000 161.7300" stroke="black" stroke-width="3.15" fill="none"/>
    <path d="M 20.0000 95.5900 L 20.0000 95.5900" stroke="black" stroke-width="3.15" fill="none"/>
    <path d="M 20.0000 95.5900 L 191.0000 95.5900" stroke="black" stroke-width="3.15" fill="none"/>
    <path d="M 191.0000 95.5900 L 191.0000 86.1400" stroke="black" stroke-width="3.15" fill="none"/>
    <path d="M 191.0000 86.1400 L 20.0000 86.1400" stroke="black" stroke-width="3.15" fill="none"/>
    <path d="M 20.0000 86.1400 L 20.0000 76.6900" stroke="black" stroke-width="3.15" fill="none"/>
    <path d="M 20.0000 76.6900 L 191.0000 76.6900" stroke="black" stroke-width="3.15" fill="none"/>
    <path d="M 191.0000 76.6900 L 191.0000 67.2400" stroke="black" stroke-width="3.15" fill="none"/>
    <path d="M 191.0000 67.2400 L 20.0000 67.2400" stroke="black" stroke-width="3.15" fill="none"/>
    <path d="M 20.0000 67.2400 L 20.0000 57.7900" stroke="black" stroke-width="3.15" fill="none"/>
    <path d="M 20.0000 57.7900 L 191.0000 57.7900" stroke="black" stroke-width="3.15" fill="none"/>
    <path d="M 191.0000 57.7900 L 191.0000 48.3500" stroke="black" stroke-width="3.15" fill="none"/>
    <path d="M 191.0000 48.3500 L 20.0000 48.3500" stroke="black" stroke-width="3.15" fill="none"/>
    <path d="M 20.0000 48.3500 L 20.0000 38.9000" stroke="black" stroke-width="3.15" fill="none"/>
    <path d="M 20.0000 38.9000 L 191.0000 38.9000" stroke="black" stroke-width="3.15" fill="none"/>
    <path d="M 20.0000 95.5900 L 191.0000 95.5900" stroke="black" stroke-width="3.15" fill="none"/>
    <path d="M 191.0000 95.5900 L 191.0000 105.0400" stroke="black" stroke-width="3.15" fill="none"/>
    <path d="M 191.0000 105.0400 L 20.0000 105.0400" stroke="black" stroke-width="3.15" fill="none"/>
    <path d="M 20.0000 105.0400 L 20.0000 114.4900" stroke="black" stroke-width="3.15" fill="none"/>
    <path d="M 20.0000 114.4900 L 191.0000 114.4900" stroke="black" stroke-width="3.15" fill="none"/>
    <path d="M 191.0000 114.4900 L 191.0000 123.9400" stroke="black" stroke-width="3.15" fill="none"/>
    <path d="M 191.0000 123.9400 L 20.0000 123.9400" stroke="black" stroke-width="3.15" fill="none"/>
    <path d="M 20.0000 123.9400 L 20.0000 133.3900" stroke="black" stroke-width="3.15" fill="none"/>
    <path d="M 20.0000 133.3900 L 191.0000 133.3900" stroke="black" stroke-width="3.15" fill="none"/>
    <path d="M 191.0000 133.3900 L 191.0000 142.8300" stroke="black" stroke-width="3.15" fill="none"/>
    <path d="M 191.0000 142.8300 L 20.0000 142.8300" stroke="black" stroke-width="3.15" fill="none"/>
    <path d="M 20.0000 142.8300 L 20.0000 152.2800" stroke="black" stroke-width="3.15" fill="none"/>
    <path d="M 20.0000 152.2800 L 191.0000 152.2800" stroke="black" stroke-width="3.15" fill="none"/>
    <path d="M 20.0000 95.5900 L 20.0000 95.5900" stroke="black" stroke-width="3.15" fill="none"/>
  </g>
  
  <!-- Professional annotations -->
  <text x="20" y="30" class="title-text">LOG-PERIODIC TV ANTENNA</text>
  <text x="20" y="90" class="label-text">DIMENSIONS:</text>
  <text x="20" y="105" class="dimension-text">Width: 1.710 inches (1710 mils)</text>
  <text x="20" y="120" class="dimension-text">Height: 1.512 inches (1512 mils)</text>
  <text x="20" y="150" class="label-text">MANUFACTURING:</text>
  <text x="20" y="165" class="dimension-text">Trace Width: 10-20 mil (laser etching)</text>
  <text x="20" y="180" class="dimension-text">Substrate: 4.0" x 2.0" FR-4 PCB</text>
  <text x="20" y="195" class="dimension-text">Scale: 1:1 (ready for production)</text>
  <line x1="-65.5" y1="201.2" x2="105.5" y2="201.2" class="dimension-line"/>
  <line x1="-65.5" y1="196.2" x2="-65.5" y2="206.2" class="dimension-line"/>
  <line x1="105.5" y1="196.2" x2="105.5" y2="206.2" class="dimension-line"/>
  <line x1="135.5" y1="171.2" x2="135.5" y2="20.0" class="dimension-line"/>
  <line x1="130.5" y1="171.2" x2="140.5" y2="171.2" class="dimension-line"/>
  <line x1="130.5" y1="20.0" x2="140.5" y2="20.0" class="dimension-line"/>
  
  <!-- Origin marker (feed point) -->
  <circle cx="20.0" cy="95.6" r="8" class="feed-point"/>
  <text x="35.0" y="95.6" class="label-text">FEED POINT</text>
  
</svg>