<?xml version="1.0" encoding="UTF-8"?>
<svg width="311.1" height="226.2" viewBox="0 0 311.1 226.2" xmlns="http://www.w3.org/2000/svg">
  <title>Professional PCB Antenna Design - Laser Etching Ready</title>
  <desc>Log-Periodic Antenna for TV VHF Bands - Generated by Mini Antenna Designer</desc>
  
  <defs>
    <style>
      .dimension-text { font-family: Arial, sans-serif; font-size: 12px; fill: #333; }
      .label-text { font-family: Arial, sans-serif; font-size: 14px; font-weight: bold; fill: #000; }
      .title-text { font-family: Arial, sans-serif; font-size: 18px; font-weight: bold; fill: #000; }
      .subtitle-text { font-family: Arial, sans-serif; font-size: 12px; fill: #666; }
      .dimension-line { stroke: #666; stroke-width: 1; fill: none; }
      .feed-point { fill: red; stroke: darkred; stroke-width: 2; }
    </style>
  </defs>
  
  <!-- Background -->
  <rect width="311.1" height="226.2" fill="white" stroke="black" stroke-width="2"/>
  
  <!-- Grid lines for alignment (optional) -->
  <g stroke="#e0e0e0" stroke-width="0.5" opacity="0.5">
    <line x1="0" y1="0" x2="0" y2="226.2"/>
    <line x1="0" y1="0" x2="311.09999999999997" y2="0"/>
  </g>
  
  <!-- Antenna wire segments -->
  <g stroke-linecap="round" stroke-linejoin="round" id="antenna-traces">
    <path d="M 20.0000 27.6000 L 211.1000 27.6000" stroke="black" stroke-width="2.0" fill="none"/>
    <path d="M 211.1000 27.6000 L 211.1000 31.4000" stroke="black" stroke-width="2.0" fill="none"/>
    <path d="M 211.1000 31.4000 L 20.0000 31.4000" stroke="black" stroke-width="2.0" fill="none"/>
    <path d="M 20.0000 31.4000 L 20.0000 35.2000" stroke="black" stroke-width="2.0" fill="none"/>
    <path d="M 20.0000 35.2000 L 211.1000 35.2000" stroke="black" stroke-width="2.0" fill="none"/>
    <path d="M 211.1000 35.2000 L 211.1000 39.0000" stroke="black" stroke-width="2.0" fill="none"/>
    <path d="M 211.1000 39.0000 L 20.0000 39.0000" stroke="black" stroke-width="2.0" fill="none"/>
    <path d="M 20.0000 39.0000 L 20.0000 42.8000" stroke="black" stroke-width="2.0" fill="none"/>
    <path d="M 20.0000 42.8000 L 211.1000 42.8000" stroke="black" stroke-width="2.0" fill="none"/>
    <path d="M 211.1000 42.8000 L 211.1000 46.6000" stroke="black" stroke-width="2.0" fill="none"/>
    <path d="M 211.1000 46.6000 L 20.0000 46.6000" stroke="black" stroke-width="2.0" fill="none"/>
    <path d="M 20.0000 46.6000 L 20.0000 50.4000" stroke="black" stroke-width="2.0" fill="none"/>
    <path d="M 20.0000 50.4000 L 211.1000 50.4000" stroke="black" stroke-width="2.0" fill="none"/>
    <path d="M 211.1000 50.4000 L 211.1000 54.2000" stroke="black" stroke-width="2.0" fill="none"/>
    <path d="M 211.1000 54.2000 L 20.0000 54.2000" stroke="black" stroke-width="2.0" fill="none"/>
    <path d="M 20.0000 54.2000 L 20.0000 58.0000" stroke="black" stroke-width="2.0" fill="none"/>
    <path d="M 20.0000 58.0000 L 211.1000 58.0000" stroke="black" stroke-width="2.0" fill="none"/>
    <path d="M 211.1000 58.0000 L 211.1000 61.8000" stroke="black" stroke-width="2.0" fill="none"/>
    <path d="M 211.1000 61.8000 L 20.0000 61.8000" stroke="black" stroke-width="2.0" fill="none"/>
    <path d="M 20.0000 61.8000 L 20.0000 65.6000" stroke="black" stroke-width="2.0" fill="none"/>
    <path d="M 20.0000 65.6000 L 211.1000 65.6000" stroke="black" stroke-width="2.0" fill="none"/>
    <path d="M 211.1000 65.6000 L 211.1000 69.4000" stroke="black" stroke-width="2.0" fill="none"/>
    <path d="M 211.1000 69.4000 L 20.0000 69.4000" stroke="black" stroke-width="2.0" fill="none"/>
    <path d="M 20.0000 69.4000 L 20.0000 73.2000" stroke="black" stroke-width="2.0" fill="none"/>
    <path d="M 20.0000 73.2000 L 211.1000 73.2000" stroke="black" stroke-width="2.0" fill="none"/>
    <path d="M 211.1000 73.2000 L 211.1000 77.0000" stroke="black" stroke-width="2.0" fill="none"/>
    <path d="M 211.1000 77.0000 L 20.0000 77.0000" stroke="black" stroke-width="2.0" fill="none"/>
    <path d="M 20.0000 77.0000 L 20.0000 80.8000" stroke="black" stroke-width="2.0" fill="none"/>
    <path d="M 20.0000 80.8000 L 211.1000 80.8000" stroke="black" stroke-width="2.0" fill="none"/>
    <path d="M 211.1000 80.8000 L 211.1000 84.6000" stroke="black" stroke-width="2.0" fill="none"/>
    <path d="M 211.1000 84.6000 L 20.0000 84.6000" stroke="black" stroke-width="2.0" fill="none"/>
    <path d="M 20.0000 84.6000 L 20.0000 88.4000" stroke="black" stroke-width="2.0" fill="none"/>
    <path d="M 20.0000 88.4000 L 211.1000 88.4000" stroke="black" stroke-width="2.0" fill="none"/>
    <path d="M 211.1000 88.4000 L 211.1000 92.2000" stroke="black" stroke-width="2.0" fill="none"/>
    <path d="M 211.1000 92.2000 L 20.0000 92.2000" stroke="black" stroke-width="2.0" fill="none"/>
    <path d="M 20.0000 92.2000 L 20.0000 96.0000" stroke="black" stroke-width="2.0" fill="none"/>
    <path d="M 20.0000 96.0000 L 211.1000 96.0000" stroke="black" stroke-width="2.0" fill="none"/>
    <path d="M 211.1000 96.0000 L 211.1000 99.8000" stroke="black" stroke-width="2.0" fill="none"/>
    <path d="M 211.1000 99.8000 L 20.0000 99.8000" stroke="black" stroke-width="2.0" fill="none"/>
    <path d="M 20.0000 99.8000 L 20.0000 103.6000" stroke="black" stroke-width="2.0" fill="none"/>
    <path d="M 20.0000 103.6000 L 211.1000 103.6000" stroke="black" stroke-width="2.0" fill="none"/>
    <path d="M 211.1000 103.6000 L 211.1000 107.4000" stroke="black" stroke-width="2.0" fill="none"/>
    <path d="M 211.1000 107.4000 L 20.0000 107.4000" stroke="black" stroke-width="2.0" fill="none"/>
    <path d="M 20.0000 107.4000 L 20.0000 111.2000" stroke="black" stroke-width="2.0" fill="none"/>
    <path d="M 20.0000 111.2000 L 211.1000 111.2000" stroke="black" stroke-width="2.0" fill="none"/>
    <path d="M 211.1000 111.2000 L 211.1000 115.0000" stroke="black" stroke-width="2.0" fill="none"/>
    <path d="M 211.1000 115.0000 L 20.0000 115.0000" stroke="black" stroke-width="2.0" fill="none"/>
    <path d="M 20.0000 115.0000 L 20.0000 118.8000" stroke="black" stroke-width="2.0" fill="none"/>
    <path d="M 20.0000 118.8000 L 211.1000 118.8000" stroke="black" stroke-width="2.0" fill="none"/>
    <path d="M 211.1000 118.8000 L 211.1000 122.6000" stroke="black" stroke-width="2.0" fill="none"/>
    <path d="M 211.1000 122.6000 L 20.0000 122.6000" stroke="black" stroke-width="2.0" fill="none"/>
    <path d="M 20.0000 122.6000 L 20.0000 126.4000" stroke="black" stroke-width="2.0" fill="none"/>
    <path d="M 20.0000 126.4000 L 211.1000 126.4000" stroke="black" stroke-width="2.0" fill="none"/>
    <path d="M 211.1000 126.4000 L 211.1000 130.2000" stroke="black" stroke-width="2.0" fill="none"/>
    <path d="M 211.1000 130.2000 L 20.0000 130.2000" stroke="black" stroke-width="2.0" fill="none"/>
    <path d="M 20.0000 130.2000 L 20.0000 134.0000" stroke="black" stroke-width="2.0" fill="none"/>
    <path d="M 20.0000 134.0000 L 211.1000 134.0000" stroke="black" stroke-width="2.0" fill="none"/>
    <path d="M 211.1000 134.0000 L 211.1000 137.8000" stroke="black" stroke-width="2.0" fill="none"/>
    <path d="M 211.1000 137.8000 L 20.0000 137.8000" stroke="black" stroke-width="2.0" fill="none"/>
    <path d="M 20.0000 137.8000 L 20.0000 141.6000" stroke="black" stroke-width="2.0" fill="none"/>
    <path d="M 20.0000 141.6000 L 211.1000 141.6000" stroke="black" stroke-width="2.0" fill="none"/>
    <path d="M 211.1000 141.6000 L 211.1000 145.4000" stroke="black" stroke-width="2.0" fill="none"/>
    <path d="M 211.1000 145.4000 L 20.0000 145.4000" stroke="black" stroke-width="2.0" fill="none"/>
    <path d="M 20.0000 145.4000 L 20.0000 149.2000" stroke="black" stroke-width="2.0" fill="none"/>
    <path d="M 20.0000 149.2000 L 211.1000 149.2000" stroke="black" stroke-width="2.0" fill="none"/>
    <path d="M 211.1000 149.2000 L 211.1000 153.0000" stroke="black" stroke-width="2.0" fill="none"/>
    <path d="M 211.1000 153.0000 L 20.0000 153.0000" stroke="black" stroke-width="2.0" fill="none"/>
    <path d="M 20.0000 153.0000 L 20.0000 156.8000" stroke="black" stroke-width="2.0" fill="none"/>
    <path d="M 20.0000 156.8000 L 211.1000 156.8000" stroke="black" stroke-width="2.0" fill="none"/>
    <path d="M 211.1000 156.8000 L 211.1000 160.6000" stroke="black" stroke-width="2.0" fill="none"/>
    <path d="M 211.1000 160.6000 L 20.0000 160.6000" stroke="black" stroke-width="2.0" fill="none"/>
    <path d="M 20.0000 160.6000 L 20.0000 164.4000" stroke="black" stroke-width="2.0" fill="none"/>
    <path d="M 20.0000 164.4000 L 211.1000 164.4000" stroke="black" stroke-width="2.0" fill="none"/>
    <path d="M 211.1000 164.4000 L 211.1000 168.2000" stroke="black" stroke-width="2.0" fill="none"/>
    <path d="M 211.1000 168.2000 L 20.0000 168.2000" stroke="black" stroke-width="2.0" fill="none"/>
    <path d="M 20.0000 168.2000 L 20.0000 172.0000" stroke="black" stroke-width="2.0" fill="none"/>
    <path d="M 20.0000 172.0000 L 211.1000 172.0000" stroke="black" stroke-width="2.0" fill="none"/>
    <path d="M 211.1000 172.0000 L 211.1000 175.8000" stroke="black" stroke-width="2.0" fill="none"/>
    <path d="M 211.1000 175.8000 L 20.0000 175.8000" stroke="black" stroke-width="2.0" fill="none"/>
    <path d="M 20.0000 175.8000 L 20.0000 179.6000" stroke="black" stroke-width="2.0" fill="none"/>
    <path d="M 20.0000 179.6000 L 211.1000 179.6000" stroke="black" stroke-width="2.0" fill="none"/>
    <path d="M 211.1000 179.6000 L 211.1000 183.4000" stroke="black" stroke-width="2.0" fill="none"/>
    <path d="M 211.1000 183.4000 L 20.0000 183.4000" stroke="black" stroke-width="2.0" fill="none"/>
    <path d="M 20.0000 183.4000 L 20.0000 187.2000" stroke="black" stroke-width="2.0" fill="none"/>
    <path d="M 20.0000 187.2000 L 211.1000 187.2000" stroke="black" stroke-width="2.0" fill="none"/>
    <path d="M 211.1000 187.2000 L 211.1000 191.0000" stroke="black" stroke-width="2.0" fill="none"/>
    <path d="M 211.1000 191.0000 L 20.0000 191.0000" stroke="black" stroke-width="2.0" fill="none"/>
    <path d="M 20.0000 191.0000 L 20.0000 194.8000" stroke="black" stroke-width="2.0" fill="none"/>
    <path d="M 20.0000 194.8000 L 211.1000 194.8000" stroke="black" stroke-width="2.0" fill="none"/>
    <path d="M 211.1000 194.8000 L 211.1000 198.6000" stroke="black" stroke-width="2.0" fill="none"/>
    <path d="M 211.1000 198.6000 L 20.0000 198.6000" stroke="black" stroke-width="2.0" fill="none"/>
    <path d="M 20.0000 198.6000 L 20.0000 202.4000" stroke="black" stroke-width="2.0" fill="none"/>
    <path d="M 20.0000 202.4000 L 211.1000 202.4000" stroke="black" stroke-width="2.0" fill="none"/>
    <path d="M 211.1000 202.4000 L 211.1000 206.2000" stroke="black" stroke-width="2.0" fill="none"/>
    <path d="M 211.1000 206.2000 L 20.0000 206.2000" stroke="black" stroke-width="2.0" fill="none"/>
    <path d="M 20.0000 206.2000 L 20.0000 202.4000" stroke="black" stroke-width="2.0" fill="none"/>
    <path d="M 20.0000 202.4000 L 211.1000 202.4000" stroke="black" stroke-width="2.0" fill="none"/>
    <path d="M 211.1000 202.4000 L 211.1000 206.2000" stroke="black" stroke-width="2.0" fill="none"/>
    <path d="M 211.1000 206.2000 L 20.0000 206.2000" stroke="black" stroke-width="2.0" fill="none"/>
    <path d="M 20.0000 206.2000 L 20.0000 202.4000" stroke="black" stroke-width="2.0" fill="none"/>
    <path d="M 20.0000 198.6000 L 211.1000 198.6000" stroke="black" stroke-width="2.0" fill="none"/>
    <path d="M 211.1000 198.6000 L 211.1000 194.8000" stroke="black" stroke-width="2.0" fill="none"/>
    <path d="M 211.1000 194.8000 L 20.0000 194.8000" stroke="black" stroke-width="2.0" fill="none"/>
    <path d="M 20.0000 194.8000 L 20.0000 191.0000" stroke="black" stroke-width="2.0" fill="none"/>
    <path d="M 20.0000 191.0000 L 211.1000 191.0000" stroke="black" stroke-width="2.0" fill="none"/>
    <path d="M 211.1000 191.0000 L 211.1000 187.2000" stroke="black" stroke-width="2.0" fill="none"/>
    <path d="M 211.1000 187.2000 L 20.0000 187.2000" stroke="black" stroke-width="2.0" fill="none"/>
    <path d="M 20.0000 187.2000 L 20.0000 183.4000" stroke="black" stroke-width="2.0" fill="none"/>
    <path d="M 20.0000 183.4000 L 211.1000 183.4000" stroke="black" stroke-width="2.0" fill="none"/>
    <path d="M 211.1000 183.4000 L 211.1000 179.6000" stroke="black" stroke-width="2.0" fill="none"/>
    <path d="M 211.1000 179.6000 L 20.0000 179.6000" stroke="black" stroke-width="2.0" fill="none"/>
    <path d="M 20.0000 179.6000 L 20.0000 175.8000" stroke="black" stroke-width="2.0" fill="none"/>
    <path d="M 20.0000 175.8000 L 211.1000 175.8000" stroke="black" stroke-width="2.0" fill="none"/>
    <path d="M 211.1000 175.8000 L 211.1000 172.0000" stroke="black" stroke-width="2.0" fill="none"/>
    <path d="M 211.1000 172.0000 L 20.0000 172.0000" stroke="black" stroke-width="2.0" fill="none"/>
    <path d="M 20.0000 172.0000 L 20.0000 168.2000" stroke="black" stroke-width="2.0" fill="none"/>
    <path d="M 20.0000 168.2000 L 211.1000 168.2000" stroke="black" stroke-width="2.0" fill="none"/>
    <path d="M 211.1000 168.2000 L 211.1000 164.4000" stroke="black" stroke-width="2.0" fill="none"/>
    <path d="M 211.1000 164.4000 L 20.0000 164.4000" stroke="black" stroke-width="2.0" fill="none"/>
    <path d="M 20.0000 164.4000 L 20.0000 160.6000" stroke="black" stroke-width="2.0" fill="none"/>
    <path d="M 20.0000 160.6000 L 211.1000 160.6000" stroke="black" stroke-width="2.0" fill="none"/>
    <path d="M 211.1000 160.6000 L 211.1000 156.8000" stroke="black" stroke-width="2.0" fill="none"/>
    <path d="M 211.1000 156.8000 L 20.0000 156.8000" stroke="black" stroke-width="2.0" fill="none"/>
    <path d="M 20.0000 156.8000 L 20.0000 153.0000" stroke="black" stroke-width="2.0" fill="none"/>
    <path d="M 20.0000 153.0000 L 211.1000 153.0000" stroke="black" stroke-width="2.0" fill="none"/>
    <path d="M 211.1000 153.0000 L 211.1000 149.2000" stroke="black" stroke-width="2.0" fill="none"/>
    <path d="M 211.1000 149.2000 L 20.0000 149.2000" stroke="black" stroke-width="2.0" fill="none"/>
    <path d="M 20.0000 149.2000 L 20.0000 145.4000" stroke="black" stroke-width="2.0" fill="none"/>
    <path d="M 20.0000 145.4000 L 211.1000 145.4000" stroke="black" stroke-width="2.0" fill="none"/>
    <path d="M 211.1000 145.4000 L 211.1000 141.6000" stroke="black" stroke-width="2.0" fill="none"/>
    <path d="M 211.1000 141.6000 L 20.0000 141.6000" stroke="black" stroke-width="2.0" fill="none"/>
    <path d="M 20.0000 141.6000 L 20.0000 137.8000" stroke="black" stroke-width="2.0" fill="none"/>
    <path d="M 20.0000 137.8000 L 211.1000 137.8000" stroke="black" stroke-width="2.0" fill="none"/>
    <path d="M 211.1000 137.8000 L 211.1000 134.0000" stroke="black" stroke-width="2.0" fill="none"/>
    <path d="M 211.1000 134.0000 L 20.0000 134.0000" stroke="black" stroke-width="2.0" fill="none"/>
    <path d="M 20.0000 134.0000 L 20.0000 130.2000" stroke="black" stroke-width="2.0" fill="none"/>
    <path d="M 20.0000 130.2000 L 211.1000 130.2000" stroke="black" stroke-width="2.0" fill="none"/>
    <path d="M 211.1000 130.2000 L 211.1000 126.4000" stroke="black" stroke-width="2.0" fill="none"/>
    <path d="M 211.1000 126.4000 L 20.0000 126.4000" stroke="black" stroke-width="2.0" fill="none"/>
    <path d="M 20.0000 126.4000 L 20.0000 122.6000" stroke="black" stroke-width="2.0" fill="none"/>
    <path d="M 20.0000 122.6000 L 211.1000 122.6000" stroke="black" stroke-width="2.0" fill="none"/>
    <path d="M 211.1000 122.6000 L 211.1000 118.8000" stroke="black" stroke-width="2.0" fill="none"/>
    <path d="M 211.1000 118.8000 L 20.0000 118.8000" stroke="black" stroke-width="2.0" fill="none"/>
    <path d="M 20.0000 118.8000 L 20.0000 115.0000" stroke="black" stroke-width="2.0" fill="none"/>
    <path d="M 20.0000 115.0000 L 211.1000 115.0000" stroke="black" stroke-width="2.0" fill="none"/>
    <path d="M 211.1000 115.0000 L 211.1000 111.2000" stroke="black" stroke-width="2.0" fill="none"/>
    <path d="M 211.1000 111.2000 L 20.0000 111.2000" stroke="black" stroke-width="2.0" fill="none"/>
    <path d="M 20.0000 111.2000 L 20.0000 107.4000" stroke="black" stroke-width="2.0" fill="none"/>
    <path d="M 20.0000 107.4000 L 211.1000 107.4000" stroke="black" stroke-width="2.0" fill="none"/>
    <path d="M 211.1000 107.4000 L 211.1000 103.6000" stroke="black" stroke-width="2.0" fill="none"/>
    <path d="M 211.1000 103.6000 L 20.0000 103.6000" stroke="black" stroke-width="2.0" fill="none"/>
    <path d="M 20.0000 103.6000 L 20.0000 99.8000" stroke="black" stroke-width="2.0" fill="none"/>
    <path d="M 20.0000 99.8000 L 211.1000 99.8000" stroke="black" stroke-width="2.0" fill="none"/>
    <path d="M 211.1000 99.8000 L 211.1000 96.0000" stroke="black" stroke-width="2.0" fill="none"/>
    <path d="M 211.1000 96.0000 L 20.0000 96.0000" stroke="black" stroke-width="2.0" fill="none"/>
    <path d="M 20.0000 96.0000 L 20.0000 92.2000" stroke="black" stroke-width="2.0" fill="none"/>
    <path d="M 20.0000 92.2000 L 211.1000 92.2000" stroke="black" stroke-width="2.0" fill="none"/>
    <path d="M 211.1000 92.2000 L 211.1000 88.4000" stroke="black" stroke-width="2.0" fill="none"/>
    <path d="M 211.1000 88.4000 L 20.0000 88.4000" stroke="black" stroke-width="2.0" fill="none"/>
    <path d="M 20.0000 88.4000 L 20.0000 84.6000" stroke="black" stroke-width="2.0" fill="none"/>
    <path d="M 20.0000 84.6000 L 211.1000 84.6000" stroke="black" stroke-width="2.0" fill="none"/>
    <path d="M 211.1000 84.6000 L 211.1000 80.8000" stroke="black" stroke-width="2.0" fill="none"/>
    <path d="M 211.1000 80.8000 L 20.0000 80.8000" stroke="black" stroke-width="2.0" fill="none"/>
    <path d="M 20.0000 80.8000 L 20.0000 77.0000" stroke="black" stroke-width="2.0" fill="none"/>
    <path d="M 20.0000 77.0000 L 211.1000 77.0000" stroke="black" stroke-width="2.0" fill="none"/>
    <path d="M 211.1000 77.0000 L 211.1000 73.2000" stroke="black" stroke-width="2.0" fill="none"/>
    <path d="M 211.1000 73.2000 L 20.0000 73.2000" stroke="black" stroke-width="2.0" fill="none"/>
    <path d="M 20.0000 73.2000 L 20.0000 69.4000" stroke="black" stroke-width="2.0" fill="none"/>
    <path d="M 20.0000 69.4000 L 211.1000 69.4000" stroke="black" stroke-width="2.0" fill="none"/>
    <path d="M 211.1000 69.4000 L 211.1000 65.6000" stroke="black" stroke-width="2.0" fill="none"/>
    <path d="M 211.1000 65.6000 L 20.0000 65.6000" stroke="black" stroke-width="2.0" fill="none"/>
    <path d="M 20.0000 65.6000 L 20.0000 61.8000" stroke="black" stroke-width="2.0" fill="none"/>
    <path d="M 20.0000 61.8000 L 211.1000 61.8000" stroke="black" stroke-width="2.0" fill="none"/>
    <path d="M 211.1000 61.8000 L 211.1000 58.0000" stroke="black" stroke-width="2.0" fill="none"/>
    <path d="M 211.1000 58.0000 L 20.0000 58.0000" stroke="black" stroke-width="2.0" fill="none"/>
    <path d="M 20.0000 58.0000 L 20.0000 54.2000" stroke="black" stroke-width="2.0" fill="none"/>
    <path d="M 20.0000 54.2000 L 211.1000 54.2000" stroke="black" stroke-width="2.0" fill="none"/>
    <path d="M 211.1000 54.2000 L 211.1000 50.4000" stroke="black" stroke-width="2.0" fill="none"/>
    <path d="M 211.1000 50.4000 L 20.0000 50.4000" stroke="black" stroke-width="2.0" fill="none"/>
    <path d="M 20.0000 50.4000 L 20.0000 46.6000" stroke="black" stroke-width="2.0" fill="none"/>
    <path d="M 20.0000 46.6000 L 211.1000 46.6000" stroke="black" stroke-width="2.0" fill="none"/>
    <path d="M 211.1000 46.6000 L 211.1000 42.8000" stroke="black" stroke-width="2.0" fill="none"/>
    <path d="M 211.1000 42.8000 L 20.0000 42.8000" stroke="black" stroke-width="2.0" fill="none"/>
    <path d="M 20.0000 42.8000 L 20.0000 39.0000" stroke="black" stroke-width="2.0" fill="none"/>
    <path d="M 20.0000 39.0000 L 211.1000 39.0000" stroke="black" stroke-width="2.0" fill="none"/>
    <path d="M 211.1000 39.0000 L 211.1000 35.2000" stroke="black" stroke-width="2.0" fill="none"/>
    <path d="M 211.1000 35.2000 L 20.0000 35.2000" stroke="black" stroke-width="2.0" fill="none"/>
    <path d="M 20.0000 35.2000 L 20.0000 31.4000" stroke="black" stroke-width="2.0" fill="none"/>
    <path d="M 20.0000 31.4000 L 211.1000 31.4000" stroke="black" stroke-width="2.0" fill="none"/>
    <path d="M 211.1000 31.4000 L 211.1000 27.6000" stroke="black" stroke-width="2.0" fill="none"/>
    <path d="M 211.1000 27.6000 L 20.0000 27.6000" stroke="black" stroke-width="2.0" fill="none"/>
    <path d="M 20.0000 27.6000 L 20.0000 23.8000" stroke="black" stroke-width="2.0" fill="none"/>
    <path d="M 20.0000 23.8000 L 211.1000 23.8000" stroke="black" stroke-width="2.0" fill="none"/>
    <path d="M 211.1000 23.8000 L 211.1000 20.0000" stroke="black" stroke-width="2.0" fill="none"/>
    <path d="M 211.1000 20.0000 L 20.0000 20.0000" stroke="black" stroke-width="2.0" fill="none"/>
    <path d="M 20.0000 20.0000 L 20.0000 23.8000" stroke="black" stroke-width="2.0" fill="none"/>
    <path d="M 20.0000 23.8000 L 211.1000 23.8000" stroke="black" stroke-width="2.0" fill="none"/>
    <path d="M 211.1000 23.8000 L 211.1000 20.0000" stroke="black" stroke-width="2.0" fill="none"/>
    <path d="M 211.1000 20.0000 L 20.0000 20.0000" stroke="black" stroke-width="2.0" fill="none"/>
    <path d="M 20.0000 20.0000 L 20.0000 23.8000" stroke="black" stroke-width="2.0" fill="none"/>
    <path d="M 20.0000 113.1000 L 20.0000 113.1000" stroke="black" stroke-width="2.0" fill="none"/>
  </g>
  
  <!-- Professional annotations -->
  <text x="20" y="30" class="title-text">PROFESSIONAL PCB ANTENNA</text>
  <text x="20" y="90" class="label-text">TRACE VALIDATION:</text>
  <text x="20" y="105" class="dimension-text" fill="green">Status: GOOD</text>
  <text x="20" y="120" class="dimension-text">Trace Count: 201</text>
  <text x="20" y="135" class="dimension-text">Average Width: 8.0 mil</text>
  <text x="20" y="150" class="dimension-text">Min/Max Width: 8.0/8.0 mil</text>
  <text x="20" y="210" class="label-text">DIMENSIONS:</text>
  <text x="20" y="225" class="dimension-text">Design Width: 1.911 inches (1911 mils)</text>
  <text x="20" y="240" class="dimension-text">Design Height: 1.862 inches (1862 mils)</text>
  <text x="20" y="270" class="label-text">MANUFACTURING:</text>
  <text x="20" y="285" class="dimension-text">Substrate: 2x4" FR-4 PCB (1.6mm thick)</text>
  <text x="20" y="300" class="dimension-text">Scale: 1:1 (ready for laser etching)</text>
  <text x="20" y="315" class="dimension-text">Export Date: 2025-12-23 11:52</text>
  <text x="20" y="300" class="dimension-text">Substrate: 4.0" x 2.0" FR-4 PCB</text>
  <text x="20" y="315" class="dimension-text">Scale: 1:1 (ready for production)</text>
  <line x1="-75.6" y1="236.2" x2="115.5" y2="236.2" class="dimension-line"/>
  <line x1="-75.6" y1="231.2" x2="-75.6" y2="241.2" class="dimension-line"/>
  <line x1="115.5" y1="231.2" x2="115.5" y2="241.2" class="dimension-line"/>
  <line x1="145.6" y1="206.2" x2="145.6" y2="20.0" class="dimension-line"/>
  <line x1="140.6" y1="206.2" x2="150.6" y2="206.2" class="dimension-line"/>
  <line x1="140.6" y1="20.0" x2="150.6" y2="20.0" class="dimension-line"/>
  
  <!-- Origin marker (feed point) -->
  <circle cx="20.0" cy="113.1" r="8" class="feed-point"/>
  <text x="35.0" y="113.1" class="label-text">FEED POINT</text>
  
</svg>