<?xml version="1.0" encoding="UTF-8"?>
<svg width="3695.2" height="500.0" viewBox="0 0 3695.2 500.0" xmlns="http://www.w3.org/2000/svg">
  <title>Professional PCB Antenna Design - Laser Etching Ready</title>
  <desc>Log-Periodic Antenna for TV VHF Bands - Generated by Mini Antenna Designer</desc>
  
  <defs>
    <style>
      .dimension-text { font-family: Arial, sans-serif; font-size: 12px; fill: #333; }
      .label-text { font-family: Arial, sans-serif; font-size: 14px; font-weight: bold; fill: #000; }
      .title-text { font-family: Arial, sans-serif; font-size: 18px; font-weight: bold; fill: #000; }
      .subtitle-text { font-family: Arial, sans-serif; font-size: 12px; fill: #666; }
      .dimension-line { stroke: #666; stroke-width: 1; fill: none; }
      .feed-point { fill: red; stroke: darkred; stroke-width: 2; }
    </style>
  </defs>
  
  <!-- Background -->
  <rect width="3695.2" height="500.0" fill="white" stroke="black" stroke-width="2"/>
  
  <!-- Grid lines for alignment (optional) -->
  <g stroke="#e0e0e0" stroke-width="0.5" opacity="0.5">
    <line x1="0" y1="0" x2="0" y2="500.0"/>
    <line x1="500" y1="0" x2="500" y2="500.0"/>
    <line x1="1000" y1="0" x2="1000" y2="500.0"/>
    <line x1="1500" y1="0" x2="1500" y2="500.0"/>
    <line x1="2000" y1="0" x2="2000" y2="500.0"/>
    <line x1="2500" y1="0" x2="2500" y2="500.0"/>
    <line x1="3000" y1="0" x2="3000" y2="500.0"/>
    <line x1="3500" y1="0" x2="3500" y2="500.0"/>
    <line x1="0" y1="0" x2="3695.2028516823148" y2="0"/>
  </g>
  
  <!-- Antenna wire segments -->
  <g stroke-linecap="round" stroke-linejoin="round" id="antenna-traces">
    <path d="M 1000.0000 300.0000 L 200.0000 300.0000" stroke="black" stroke-width="10.0" fill="none"/>
    <path d="M 200.0000 300.0000 L 200.0000 280.0000" stroke="black" stroke-width="10.0" fill="none"/>
    <path d="M 200.0000 280.0000 L 1000.0000 280.0000" stroke="black" stroke-width="10.0" fill="none"/>
    <path d="M 1000.0000 280.0000 L 1000.0000 300.0000" stroke="black" stroke-width="10.0" fill="none"/>
    <path d="M 1000.0000 300.0000 L 200.0000 300.0000" stroke="black" stroke-width="10.0" fill="none"/>
    <path d="M 200.0000 300.0000 L 200.0000 280.0000" stroke="black" stroke-width="10.0" fill="none"/>
    <path d="M 200.0000 280.0000 L 1000.0000 280.0000" stroke="black" stroke-width="10.0" fill="none"/>
    <path d="M 1000.0000 280.0000 L 1000.0000 300.0000" stroke="black" stroke-width="10.0" fill="none"/>
    <path d="M 1000.0000 300.0000 L 200.0000 300.0000" stroke="black" stroke-width="10.0" fill="none"/>
    <path d="M 200.0000 300.0000 L 200.0000 280.0000" stroke="black" stroke-width="10.0" fill="none"/>
    <path d="M 200.0000 280.0000 L 1000.0000 280.0000" stroke="black" stroke-width="10.0" fill="none"/>
    <path d="M 1000.0000 280.0000 L 1000.0000 300.0000" stroke="black" stroke-width="10.0" fill="none"/>
    <path d="M 1000.0000 300.0000 L 200.0000 300.0000" stroke="black" stroke-width="10.0" fill="none"/>
    <path d="M 200.0000 300.0000 L 200.0000 280.0000" stroke="black" stroke-width="10.0" fill="none"/>
    <path d="M 200.0000 280.0000 L 1000.0000 280.0000" stroke="black" stroke-width="10.0" fill="none"/>
    <path d="M 1000.0000 300.0000 L 1800.0000 300.0000" stroke="black" stroke-width="10.0" fill="none"/>
    <path d="M 1800.0000 300.0000 L 1800.0000 280.0000" stroke="black" stroke-width="10.0" fill="none"/>
    <path d="M 1800.0000 280.0000 L 1000.0000 280.0000" stroke="black" stroke-width="10.0" fill="none"/>
    <path d="M 1000.0000 280.0000 L 1000.0000 300.0000" stroke="black" stroke-width="10.0" fill="none"/>
    <path d="M 1000.0000 300.0000 L 1800.0000 300.0000" stroke="black" stroke-width="10.0" fill="none"/>
    <path d="M 1800.0000 300.0000 L 1800.0000 280.0000" stroke="black" stroke-width="10.0" fill="none"/>
    <path d="M 1800.0000 280.0000 L 1000.0000 280.0000" stroke="black" stroke-width="10.0" fill="none"/>
    <path d="M 1000.0000 280.0000 L 1000.0000 300.0000" stroke="black" stroke-width="10.0" fill="none"/>
    <path d="M 1000.0000 300.0000 L 1800.0000 300.0000" stroke="black" stroke-width="10.0" fill="none"/>
    <path d="M 1800.0000 300.0000 L 1800.0000 280.0000" stroke="black" stroke-width="10.0" fill="none"/>
    <path d="M 1800.0000 280.0000 L 1000.0000 280.0000" stroke="black" stroke-width="10.0" fill="none"/>
    <path d="M 1000.0000 280.0000 L 1000.0000 300.0000" stroke="black" stroke-width="10.0" fill="none"/>
    <path d="M 1000.0000 300.0000 L 1800.0000 300.0000" stroke="black" stroke-width="10.0" fill="none"/>
    <path d="M 1800.0000 300.0000 L 1800.0000 280.0000" stroke="black" stroke-width="10.0" fill="none"/>
    <path d="M 1800.0000 280.0000 L 1000.0000 280.0000" stroke="black" stroke-width="10.0" fill="none"/>
    <path d="M 1586.5113 300.0000 L 519.8113 300.0000" stroke="black" stroke-width="10.0" fill="none"/>
    <path d="M 519.8113 300.0000 L 519.8113 280.0000" stroke="black" stroke-width="10.0" fill="none"/>
    <path d="M 519.8113 280.0000 L 1586.5113 280.0000" stroke="black" stroke-width="10.0" fill="none"/>
    <path d="M 1586.5113 280.0000 L 1586.5113 300.0000" stroke="black" stroke-width="10.0" fill="none"/>
    <path d="M 1586.5113 300.0000 L 519.8113 300.0000" stroke="black" stroke-width="10.0" fill="none"/>
    <path d="M 519.8113 300.0000 L 519.8113 280.0000" stroke="black" stroke-width="10.0" fill="none"/>
    <path d="M 519.8113 280.0000 L 1586.5113 280.0000" stroke="black" stroke-width="10.0" fill="none"/>
    <path d="M 1586.5113 300.0000 L 2653.2113 300.0000" stroke="black" stroke-width="10.0" fill="none"/>
    <path d="M 2653.2113 300.0000 L 2653.2113 280.0000" stroke="black" stroke-width="10.0" fill="none"/>
    <path d="M 2653.2113 280.0000 L 1586.5113 280.0000" stroke="black" stroke-width="10.0" fill="none"/>
    <path d="M 1586.5113 280.0000 L 1586.5113 300.0000" stroke="black" stroke-width="10.0" fill="none"/>
    <path d="M 1586.5113 300.0000 L 2653.2113 300.0000" stroke="black" stroke-width="10.0" fill="none"/>
    <path d="M 2653.2113 300.0000 L 2653.2113 280.0000" stroke="black" stroke-width="10.0" fill="none"/>
    <path d="M 2653.2113 280.0000 L 1586.5113 280.0000" stroke="black" stroke-width="10.0" fill="none"/>
    <path d="M 1928.5029 300.0000 L 861.8029 300.0000" stroke="black" stroke-width="10.0" fill="none"/>
    <path d="M 861.8029 300.0000 L 861.8029 280.0000" stroke="black" stroke-width="10.0" fill="none"/>
    <path d="M 861.8029 280.0000 L 1928.5029 280.0000" stroke="black" stroke-width="10.0" fill="none"/>
    <path d="M 1928.5029 280.0000 L 1928.5029 300.0000" stroke="black" stroke-width="10.0" fill="none"/>
    <path d="M 1928.5029 300.0000 L 861.8029 300.0000" stroke="black" stroke-width="10.0" fill="none"/>
    <path d="M 861.8029 300.0000 L 861.8029 280.0000" stroke="black" stroke-width="10.0" fill="none"/>
    <path d="M 861.8029 280.0000 L 1928.5029 280.0000" stroke="black" stroke-width="10.0" fill="none"/>
    <path d="M 1928.5029 300.0000 L 2995.2029 300.0000" stroke="black" stroke-width="10.0" fill="none"/>
    <path d="M 2995.2029 300.0000 L 2995.2029 280.0000" stroke="black" stroke-width="10.0" fill="none"/>
    <path d="M 2995.2029 280.0000 L 1928.5029 280.0000" stroke="black" stroke-width="10.0" fill="none"/>
    <path d="M 1928.5029 280.0000 L 1928.5029 300.0000" stroke="black" stroke-width="10.0" fill="none"/>
    <path d="M 1928.5029 300.0000 L 2995.2029 300.0000" stroke="black" stroke-width="10.0" fill="none"/>
    <path d="M 2995.2029 300.0000 L 2995.2029 280.0000" stroke="black" stroke-width="10.0" fill="none"/>
    <path d="M 2995.2029 280.0000 L 1928.5029 280.0000" stroke="black" stroke-width="10.0" fill="none"/>
    <path d="M 950.0000 300.0000 L 1050.0000 300.0000" stroke="black" stroke-width="10.0" fill="none"/>
    <path d="M 1050.0000 300.0000 L 1200.0000 300.0000" stroke="black" stroke-width="10.0" fill="none"/>
    <path d="M 950.0000 300.0000 L 800.0000 300.0000" stroke="black" stroke-width="10.0" fill="none"/>
    <path d="M 1000.0000 300.0000 L 2128.5000 300.0000" stroke="black" stroke-width="7.5" fill="none"/>
    <path d="M 1000.0000 300.0000 L 1000.0000 200.0000" stroke="black" stroke-width="7.5" fill="none"/>
    <path d="M 1586.5000 300.0000 L 1586.5000 200.0000" stroke="black" stroke-width="7.5" fill="none"/>
    <path d="M 1928.5000 300.0000 L 1928.5000 200.0000" stroke="black" stroke-width="7.5" fill="none"/>
  </g>
  
  <!-- Professional annotations -->
  <text x="20" y="30" class="title-text">LOG-PERIODIC TV ANTENNA</text>
  <text x="20" y="90" class="label-text">DIMENSIONS:</text>
  <text x="20" y="105" class="dimension-text">Width: 2.795 inches (2795 mils)</text>
  <text x="20" y="120" class="dimension-text">Height: 0.100 inches (100 mils)</text>
  <text x="20" y="150" class="label-text">MANUFACTURING:</text>
  <text x="20" y="165" class="dimension-text">Trace Width: 10-20 mil (laser etching)</text>
  <text x="20" y="180" class="dimension-text">Substrate: 4.0" x 2.0" FR-4 PCB</text>
  <text x="20" y="195" class="dimension-text">Scale: 1:1 (ready for production)</text>
  <line x1="-397.6" y1="650.0" x2="2397.6" y2="650.0" class="dimension-line"/>
  <line x1="-397.6" y1="645.0" x2="-397.6" y2="655.0" class="dimension-line"/>
  <line x1="2397.6" y1="645.0" x2="2397.6" y2="655.0" class="dimension-line"/>
  <line x1="2697.6" y1="350.0" x2="2697.6" y2="250.0" class="dimension-line"/>
  <line x1="2692.6" y1="350.0" x2="2702.6" y2="350.0" class="dimension-line"/>
  <line x1="2692.6" y1="250.0" x2="2702.6" y2="250.0" class="dimension-line"/>
  
  <!-- Origin marker (feed point) -->
  <circle cx="1000.0" cy="300.0" r="8" class="feed-point"/>
  <text x="1015.0" y="300.0" class="label-text">FEED POINT</text>
  
</svg>