<?xml version="1.0" encoding="UTF-8"?>
<svg width="414.3" height="61.1" viewBox="0 0 414.3 61.1"
     xmlns="http://www.w3.org/2000/svg">
  <title>Meander Pattern Debug</title>

  <!-- Background -->
  <rect width="414.3" height="61.1" fill="white" stroke="black" stroke-width="1"/>

  <!-- Antenna traces -->
  <g>
    <line x1="20.00" y1="41.10" x2="394.26" y2="41.10" stroke="black" stroke-width="2"/>
    <line x1="390.32" y1="41.10" x2="390.39" y2="40.34" stroke="black" stroke-width="2"/>
    <line x1="390.39" y1="40.34" x2="390.62" y2="39.60" stroke="black" stroke-width="2"/>
    <line x1="390.62" y1="39.60" x2="390.98" y2="38.92" stroke="black" stroke-width="2"/>
    <line x1="390.98" y1="38.92" x2="391.47" y2="38.32" stroke="black" stroke-width="2"/>
    <line x1="391.47" y1="38.32" x2="392.07" y2="37.83" stroke="black" stroke-width="2"/>
    <line x1="392.07" y1="37.83" x2="392.75" y2="37.47" stroke="black" stroke-width="2"/>
    <line x1="392.75" y1="37.47" x2="393.49" y2="37.24" stroke="black" stroke-width="2"/>
    <line x1="393.49" y1="37.24" x2="394.26" y2="37.17" stroke="black" stroke-width="2"/>
    <line x1="394.26" y1="20.00" x2="20.00" y2="20.00" stroke="black" stroke-width="2"/>
    <line x1="23.94" y1="20.00" x2="23.87" y2="20.77" stroke="black" stroke-width="2"/>
    <line x1="23.87" y1="20.77" x2="23.64" y2="21.51" stroke="black" stroke-width="2"/>
    <line x1="23.64" y1="21.51" x2="23.28" y2="22.19" stroke="black" stroke-width="2"/>
    <line x1="23.28" y1="22.19" x2="22.79" y2="22.78" stroke="black" stroke-width="2"/>
    <line x1="22.79" y1="22.78" x2="22.19" y2="23.27" stroke="black" stroke-width="2"/>
    <line x1="22.19" y1="23.27" x2="21.51" y2="23.64" stroke="black" stroke-width="2"/>
    <line x1="21.51" y1="23.64" x2="20.77" y2="23.86" stroke="black" stroke-width="2"/>
    <line x1="20.77" y1="23.86" x2="20.00" y2="23.94" stroke="black" stroke-width="2"/>
    <line x1="20.00" y1="41.10" x2="394.26" y2="41.10" stroke="black" stroke-width="2"/>
    <line x1="390.32" y1="41.10" x2="390.39" y2="40.34" stroke="black" stroke-width="2"/>
    <line x1="390.39" y1="40.34" x2="390.62" y2="39.60" stroke="black" stroke-width="2"/>
    <line x1="390.62" y1="39.60" x2="390.98" y2="38.92" stroke="black" stroke-width="2"/>
    <line x1="390.98" y1="38.92" x2="391.47" y2="38.32" stroke="black" stroke-width="2"/>
    <line x1="391.47" y1="38.32" x2="392.07" y2="37.83" stroke="black" stroke-width="2"/>
    <line x1="392.07" y1="37.83" x2="392.75" y2="37.47" stroke="black" stroke-width="2"/>
    <line x1="392.75" y1="37.47" x2="393.49" y2="37.24" stroke="black" stroke-width="2"/>
    <line x1="393.49" y1="37.24" x2="394.26" y2="37.17" stroke="black" stroke-width="2"/>
    <line x1="394.26" y1="20.00" x2="20.00" y2="20.00" stroke="black" stroke-width="2"/>
    <line x1="23.94" y1="20.00" x2="23.87" y2="20.77" stroke="black" stroke-width="2"/>
    <line x1="23.87" y1="20.77" x2="23.64" y2="21.51" stroke="black" stroke-width="2"/>
    <line x1="23.64" y1="21.51" x2="23.28" y2="22.19" stroke="black" stroke-width="2"/>
    <line x1="23.28" y1="22.19" x2="22.79" y2="22.78" stroke="black" stroke-width="2"/>
    <line x1="22.79" y1="22.78" x2="22.19" y2="23.27" stroke="black" stroke-width="2"/>
    <line x1="22.19" y1="23.27" x2="21.51" y2="23.64" stroke="black" stroke-width="2"/>
    <line x1="21.51" y1="23.64" x2="20.77" y2="23.86" stroke="black" stroke-width="2"/>
    <line x1="20.77" y1="23.86" x2="20.00" y2="23.94" stroke="black" stroke-width="2"/>
    <line x1="20.00" y1="41.10" x2="394.26" y2="41.10" stroke="black" stroke-width="2"/>
    <line x1="390.32" y1="41.10" x2="390.39" y2="40.34" stroke="black" stroke-width="2"/>
    <line x1="390.39" y1="40.34" x2="390.62" y2="39.60" stroke="black" stroke-width="2"/>
    <line x1="390.62" y1="39.60" x2="390.98" y2="38.92" stroke="black" stroke-width="2"/>
    <line x1="390.98" y1="38.92" x2="391.47" y2="38.32" stroke="black" stroke-width="2"/>
    <line x1="391.47" y1="38.32" x2="392.07" y2="37.83" stroke="black" stroke-width="2"/>
    <line x1="392.07" y1="37.83" x2="392.75" y2="37.47" stroke="black" stroke-width="2"/>
    <line x1="392.75" y1="37.47" x2="393.49" y2="37.24" stroke="black" stroke-width="2"/>
    <line x1="393.49" y1="37.24" x2="394.26" y2="37.17" stroke="black" stroke-width="2"/>
    <line x1="394.26" y1="20.00" x2="20.00" y2="20.00" stroke="black" stroke-width="2"/>
    <line x1="23.94" y1="20.00" x2="23.87" y2="20.77" stroke="black" stroke-width="2"/>
    <line x1="23.87" y1="20.77" x2="23.64" y2="21.51" stroke="black" stroke-width="2"/>
    <line x1="23.64" y1="21.51" x2="23.28" y2="22.19" stroke="black" stroke-width="2"/>
    <line x1="23.28" y1="22.19" x2="22.79" y2="22.78" stroke="black" stroke-width="2"/>
    <line x1="22.79" y1="22.78" x2="22.19" y2="23.27" stroke="black" stroke-width="2"/>
    <line x1="22.19" y1="23.27" x2="21.51" y2="23.64" stroke="black" stroke-width="2"/>
    <line x1="21.51" y1="23.64" x2="20.77" y2="23.86" stroke="black" stroke-width="2"/>
    <line x1="20.77" y1="23.86" x2="20.00" y2="23.94" stroke="black" stroke-width="2"/>
    <line x1="20.00" y1="41.10" x2="394.26" y2="41.10" stroke="black" stroke-width="2"/>
    <line x1="390.32" y1="41.10" x2="390.39" y2="40.34" stroke="black" stroke-width="2"/>
    <line x1="390.39" y1="40.34" x2="390.62" y2="39.60" stroke="black" stroke-width="2"/>
    <line x1="390.62" y1="39.60" x2="390.98" y2="38.92" stroke="black" stroke-width="2"/>
    <line x1="390.98" y1="38.92" x2="391.47" y2="38.32" stroke="black" stroke-width="2"/>
    <line x1="391.47" y1="38.32" x2="392.07" y2="37.83" stroke="black" stroke-width="2"/>
    <line x1="392.07" y1="37.83" x2="392.75" y2="37.47" stroke="black" stroke-width="2"/>
    <line x1="392.75" y1="37.47" x2="393.49" y2="37.24" stroke="black" stroke-width="2"/>
    <line x1="393.49" y1="37.24" x2="394.26" y2="37.17" stroke="black" stroke-width="2"/>
    <line x1="394.26" y1="20.00" x2="20.00" y2="20.00" stroke="black" stroke-width="2"/>
    <line x1="207.13" y1="41.10" x2="20.00" y2="41.10" stroke="black" stroke-width="2"/>
  </g>

  <!-- Info text -->
  <text x="10" y="20" font-family="Arial" font-size="12" fill="black">
    Bounds: 3.743" x 0.211"
  </text>
  <text x="10" y="35" font-family="Arial" font-size="12" fill="black">
    Segments: 65
  </text>
  <text x="10" y="50" font-family="Arial" font-size="12" fill="black">
    Total length: 32.244"
  </text>

</svg>