<?xml version="1.0" encoding="UTF-8"?>
<svg width="464.3" height="70.3" viewBox="0 0 464.3 70.3" xmlns="http://www.w3.org/2000/svg">
  <title>Professional PCB Antenna Design - Laser Etching Ready</title>
  <desc>Log-Periodic Antenna for TV VHF Bands - Generated by Mini Antenna Designer</desc>
  
  <defs>
    <style>
      .dimension-text { font-family: Arial, sans-serif; font-size: 12px; fill: #333; }
      .label-text { font-family: Arial, sans-serif; font-size: 14px; font-weight: bold; fill: #000; }
      .title-text { font-family: Arial, sans-serif; font-size: 18px; font-weight: bold; fill: #000; }
      .subtitle-text { font-family: Arial, sans-serif; font-size: 12px; fill: #666; }
      .dimension-line { stroke: #666; stroke-width: 1; fill: none; }
      .feed-point { fill: red; stroke: darkred; stroke-width: 2; }
    </style>
  </defs>
  
  <!-- Background -->
  <rect width="464.3" height="70.3" fill="white" stroke="black" stroke-width="2"/>
  
  <!-- Grid lines for alignment (optional) -->
  <g stroke="#e0e0e0" stroke-width="0.5" opacity="0.5">
    <line x1="0" y1="0" x2="0" y2="70.34"/>
    <line x1="0" y1="0" x2="464.26" y2="0"/>
  </g>
  
  <!-- Antenna wire segments -->
  <g stroke-linecap="round" stroke-linejoin="round" id="antenna-traces">
    <path d="M 20.0000 50.3400 L 394.2600 50.3400" stroke="black" stroke-width="3.15" fill="none"/>
    <path d="M 390.3200 50.3400 L 390.3900 49.5800" stroke="black" stroke-width="3.15" fill="none"/>
    <path d="M 390.3900 49.5800 L 390.6200 48.8400" stroke="black" stroke-width="3.15" fill="none"/>
    <path d="M 390.6200 48.8400 L 390.9800 48.1600" stroke="black" stroke-width="3.15" fill="none"/>
    <path d="M 390.9800 48.1600 L 391.4700 47.5600" stroke="black" stroke-width="3.15" fill="none"/>
    <path d="M 391.4700 47.5600 L 392.0700 47.0700" stroke="black" stroke-width="3.15" fill="none"/>
    <path d="M 392.0700 47.0700 L 392.7500 46.7100" stroke="black" stroke-width="3.15" fill="none"/>
    <path d="M 392.7500 46.7100 L 393.4900 46.4800" stroke="black" stroke-width="3.15" fill="none"/>
    <path d="M 393.4900 46.4800 L 394.2600 46.4100" stroke="black" stroke-width="3.15" fill="none"/>
    <path d="M 394.2600 30.7900 L 20.0000 30.7900" stroke="black" stroke-width="3.15" fill="none"/>
    <path d="M 23.9400 30.7900 L 23.8700 31.5600" stroke="black" stroke-width="3.15" fill="none"/>
    <path d="M 23.8700 31.5600 L 23.6400 32.3000" stroke="black" stroke-width="3.15" fill="none"/>
    <path d="M 23.6400 32.3000 L 23.2800 32.9800" stroke="black" stroke-width="3.15" fill="none"/>
    <path d="M 23.2800 32.9800 L 22.7900 33.5800" stroke="black" stroke-width="3.15" fill="none"/>
    <path d="M 22.7900 33.5800 L 22.1900 34.0700" stroke="black" stroke-width="3.15" fill="none"/>
    <path d="M 22.1900 34.0700 L 21.5100 34.4300" stroke="black" stroke-width="3.15" fill="none"/>
    <path d="M 21.5100 34.4300 L 20.7700 34.6600" stroke="black" stroke-width="3.15" fill="none"/>
    <path d="M 20.7700 34.6600 L 20.0000 34.7300" stroke="black" stroke-width="3.15" fill="none"/>
    <path d="M 20.0000 50.3400 L 394.2600 50.3400" stroke="black" stroke-width="3.15" fill="none"/>
    <path d="M 390.3200 50.3400 L 390.3900 49.5800" stroke="black" stroke-width="3.15" fill="none"/>
    <path d="M 390.3900 49.5800 L 390.6200 48.8400" stroke="black" stroke-width="3.15" fill="none"/>
    <path d="M 390.6200 48.8400 L 390.9800 48.1600" stroke="black" stroke-width="3.15" fill="none"/>
    <path d="M 390.9800 48.1600 L 391.4700 47.5600" stroke="black" stroke-width="3.15" fill="none"/>
    <path d="M 391.4700 47.5600 L 392.0700 47.0700" stroke="black" stroke-width="3.15" fill="none"/>
    <path d="M 392.0700 47.0700 L 392.7500 46.7100" stroke="black" stroke-width="3.15" fill="none"/>
    <path d="M 392.7500 46.7100 L 393.4900 46.4800" stroke="black" stroke-width="3.15" fill="none"/>
    <path d="M 393.4900 46.4800 L 394.2600 46.4100" stroke="black" stroke-width="3.15" fill="none"/>
    <path d="M 394.2600 30.7900 L 20.0000 30.7900" stroke="black" stroke-width="3.15" fill="none"/>
    <path d="M 23.9400 30.7900 L 23.8700 31.5600" stroke="black" stroke-width="3.15" fill="none"/>
    <path d="M 23.8700 31.5600 L 23.6400 32.3000" stroke="black" stroke-width="3.15" fill="none"/>
    <path d="M 23.6400 32.3000 L 23.2800 32.9800" stroke="black" stroke-width="3.15" fill="none"/>
    <path d="M 23.2800 32.9800 L 22.7900 33.5800" stroke="black" stroke-width="3.15" fill="none"/>
    <path d="M 22.7900 33.5800 L 22.1900 34.0700" stroke="black" stroke-width="3.15" fill="none"/>
    <path d="M 22.1900 34.0700 L 21.5100 34.4300" stroke="black" stroke-width="3.15" fill="none"/>
    <path d="M 21.5100 34.4300 L 20.7700 34.6600" stroke="black" stroke-width="3.15" fill="none"/>
    <path d="M 20.7700 34.6600 L 20.0000 34.7300" stroke="black" stroke-width="3.15" fill="none"/>
    <path d="M 20.0000 50.3400 L 394.2600 50.3400" stroke="black" stroke-width="3.15" fill="none"/>
    <path d="M 390.3200 50.3400 L 390.3900 49.5800" stroke="black" stroke-width="3.15" fill="none"/>
    <path d="M 390.3900 49.5800 L 390.6200 48.8400" stroke="black" stroke-width="3.15" fill="none"/>
    <path d="M 390.6200 48.8400 L 390.9800 48.1600" stroke="black" stroke-width="3.15" fill="none"/>
    <path d="M 390.9800 48.1600 L 391.4700 47.5600" stroke="black" stroke-width="3.15" fill="none"/>
    <path d="M 391.4700 47.5600 L 392.0700 47.0700" stroke="black" stroke-width="3.15" fill="none"/>
    <path d="M 392.0700 47.0700 L 392.7500 46.7100" stroke="black" stroke-width="3.15" fill="none"/>
    <path d="M 392.7500 46.7100 L 393.4900 46.4800" stroke="black" stroke-width="3.15" fill="none"/>
    <path d="M 393.4900 46.4800 L 394.2600 46.4100" stroke="black" stroke-width="3.15" fill="none"/>
    <path d="M 394.2600 30.7900 L 20.0000 30.7900" stroke="black" stroke-width="3.15" fill="none"/>
    <path d="M 23.9400 30.7900 L 23.8700 31.5600" stroke="black" stroke-width="3.15" fill="none"/>
    <path d="M 23.8700 31.5600 L 23.6400 32.3000" stroke="black" stroke-width="3.15" fill="none"/>
    <path d="M 23.6400 32.3000 L 23.2800 32.9800" stroke="black" stroke-width="3.15" fill="none"/>
    <path d="M 23.2800 32.9800 L 22.7900 33.5800" stroke="black" stroke-width="3.15" fill="none"/>
    <path d="M 22.7900 33.5800 L 22.1900 34.0700" stroke="black" stroke-width="3.15" fill="none"/>
    <path d="M 22.1900 34.0700 L 21.5100 34.4300" stroke="black" stroke-width="3.15" fill="none"/>
    <path d="M 21.5100 34.4300 L 20.7700 34.6600" stroke="black" stroke-width="3.15" fill="none"/>
    <path d="M 20.7700 34.6600 L 20.0000 34.7300" stroke="black" stroke-width="3.15" fill="none"/>
    <path d="M 20.0000 50.3400 L 394.2600 50.3400" stroke="black" stroke-width="3.15" fill="none"/>
    <path d="M 390.3200 50.3400 L 390.3900 49.5800" stroke="black" stroke-width="3.15" fill="none"/>
    <path d="M 390.3900 49.5800 L 390.6200 48.8400" stroke="black" stroke-width="3.15" fill="none"/>
    <path d="M 390.6200 48.8400 L 390.9800 48.1600" stroke="black" stroke-width="3.15" fill="none"/>
    <path d="M 390.9800 48.1600 L 391.4700 47.5600" stroke="black" stroke-width="3.15" fill="none"/>
    <path d="M 391.4700 47.5600 L 392.0700 47.0700" stroke="black" stroke-width="3.15" fill="none"/>
    <path d="M 392.0700 47.0700 L 392.7500 46.7100" stroke="black" stroke-width="3.15" fill="none"/>
    <path d="M 392.7500 46.7100 L 393.4900 46.4800" stroke="black" stroke-width="3.15" fill="none"/>
    <path d="M 393.4900 46.4800 L 394.2600 46.4100" stroke="black" stroke-width="3.15" fill="none"/>
    <path d="M 394.2600 30.7900 L 20.0000 30.7900" stroke="black" stroke-width="3.15" fill="none"/>
    <path d="M 207.1300 50.3400 L 20.0000 50.3400" stroke="black" stroke-width="3.15" fill="none"/>
    <path d="M 20.0000 49.3300 L 394.2600 49.3300" stroke="black" stroke-width="3.15" fill="none"/>
    <path d="M 390.3200 49.3300 L 390.3900 48.5600" stroke="black" stroke-width="3.15" fill="none"/>
    <path d="M 390.3900 48.5600 L 390.6200 47.8200" stroke="black" stroke-width="3.15" fill="none"/>
    <path d="M 390.6200 47.8200 L 390.9800 47.1400" stroke="black" stroke-width="3.15" fill="none"/>
    <path d="M 390.9800 47.1400 L 391.4700 46.5400" stroke="black" stroke-width="3.15" fill="none"/>
    <path d="M 391.4700 46.5400 L 392.0700 46.0500" stroke="black" stroke-width="3.15" fill="none"/>
    <path d="M 392.0700 46.0500 L 392.7500 45.6900" stroke="black" stroke-width="3.15" fill="none"/>
    <path d="M 392.7500 45.6900 L 393.4900 45.4600" stroke="black" stroke-width="3.15" fill="none"/>
    <path d="M 393.4900 45.4600 L 394.2600 45.3900" stroke="black" stroke-width="3.15" fill="none"/>
    <path d="M 394.2600 26.8600 L 20.0000 26.8600" stroke="black" stroke-width="3.15" fill="none"/>
    <path d="M 23.9400 26.8600 L 23.8700 27.6300" stroke="black" stroke-width="3.15" fill="none"/>
    <path d="M 23.8700 27.6300 L 23.6400 28.3600" stroke="black" stroke-width="3.15" fill="none"/>
    <path d="M 23.6400 28.3600 L 23.2800 29.0400" stroke="black" stroke-width="3.15" fill="none"/>
    <path d="M 23.2800 29.0400 L 22.7900 29.6400" stroke="black" stroke-width="3.15" fill="none"/>
    <path d="M 22.7900 29.6400 L 22.1900 30.1300" stroke="black" stroke-width="3.15" fill="none"/>
    <path d="M 22.1900 30.1300 L 21.5100 30.4900" stroke="black" stroke-width="3.15" fill="none"/>
    <path d="M 21.5100 30.4900 L 20.7700 30.7200" stroke="black" stroke-width="3.15" fill="none"/>
    <path d="M 20.7700 30.7200 L 20.0000 30.7900" stroke="black" stroke-width="3.15" fill="none"/>
    <path d="M 20.0000 49.3300 L 394.2600 49.3300" stroke="black" stroke-width="3.15" fill="none"/>
    <path d="M 390.3200 49.3300 L 390.3900 48.5600" stroke="black" stroke-width="3.15" fill="none"/>
    <path d="M 390.3900 48.5600 L 390.6200 47.8200" stroke="black" stroke-width="3.15" fill="none"/>
    <path d="M 390.6200 47.8200 L 390.9800 47.1400" stroke="black" stroke-width="3.15" fill="none"/>
    <path d="M 390.9800 47.1400 L 391.4700 46.5400" stroke="black" stroke-width="3.15" fill="none"/>
    <path d="M 391.4700 46.5400 L 392.0700 46.0500" stroke="black" stroke-width="3.15" fill="none"/>
    <path d="M 392.0700 46.0500 L 392.7500 45.6900" stroke="black" stroke-width="3.15" fill="none"/>
    <path d="M 392.7500 45.6900 L 393.4900 45.4600" stroke="black" stroke-width="3.15" fill="none"/>
    <path d="M 393.4900 45.4600 L 394.2600 45.3900" stroke="black" stroke-width="3.15" fill="none"/>
    <path d="M 394.2600 26.8600 L 20.0000 26.8600" stroke="black" stroke-width="3.15" fill="none"/>
    <path d="M 23.9400 26.8600 L 23.8700 27.6300" stroke="black" stroke-width="3.15" fill="none"/>
    <path d="M 23.8700 27.6300 L 23.6400 28.3600" stroke="black" stroke-width="3.15" fill="none"/>
    <path d="M 23.6400 28.3600 L 23.2800 29.0400" stroke="black" stroke-width="3.15" fill="none"/>
    <path d="M 23.2800 29.0400 L 22.7900 29.6400" stroke="black" stroke-width="3.15" fill="none"/>
    <path d="M 22.7900 29.6400 L 22.1900 30.1300" stroke="black" stroke-width="3.15" fill="none"/>
    <path d="M 22.1900 30.1300 L 21.5100 30.4900" stroke="black" stroke-width="3.15" fill="none"/>
    <path d="M 21.5100 30.4900 L 20.7700 30.7200" stroke="black" stroke-width="3.15" fill="none"/>
    <path d="M 20.7700 30.7200 L 20.0000 30.7900" stroke="black" stroke-width="3.15" fill="none"/>
    <path d="M 20.0000 49.3300 L 394.2600 49.3300" stroke="black" stroke-width="3.15" fill="none"/>
    <path d="M 390.3200 49.3300 L 390.3900 48.5600" stroke="black" stroke-width="3.15" fill="none"/>
    <path d="M 390.3900 48.5600 L 390.6200 47.8200" stroke="black" stroke-width="3.15" fill="none"/>
    <path d="M 390.6200 47.8200 L 390.9800 47.1400" stroke="black" stroke-width="3.15" fill="none"/>
    <path d="M 390.9800 47.1400 L 391.4700 46.5400" stroke="black" stroke-width="3.15" fill="none"/>
    <path d="M 391.4700 46.5400 L 392.0700 46.0500" stroke="black" stroke-width="3.15" fill="none"/>
    <path d="M 392.0700 46.0500 L 392.7500 45.6900" stroke="black" stroke-width="3.15" fill="none"/>
    <path d="M 392.7500 45.6900 L 393.4900 45.4600" stroke="black" stroke-width="3.15" fill="none"/>
    <path d="M 393.4900 45.4600 L 394.2600 45.3900" stroke="black" stroke-width="3.15" fill="none"/>
    <path d="M 394.2600 26.8600 L 20.0000 26.8600" stroke="black" stroke-width="3.15" fill="none"/>
    <path d="M 23.9400 26.8600 L 23.8700 27.6300" stroke="black" stroke-width="3.15" fill="none"/>
    <path d="M 23.8700 27.6300 L 23.6400 28.3600" stroke="black" stroke-width="3.15" fill="none"/>
    <path d="M 23.6400 28.3600 L 23.2800 29.0400" stroke="black" stroke-width="3.15" fill="none"/>
    <path d="M 23.2800 29.0400 L 22.7900 29.6400" stroke="black" stroke-width="3.15" fill="none"/>
    <path d="M 22.7900 29.6400 L 22.1900 30.1300" stroke="black" stroke-width="3.15" fill="none"/>
    <path d="M 22.1900 30.1300 L 21.5100 30.4900" stroke="black" stroke-width="3.15" fill="none"/>
    <path d="M 21.5100 30.4900 L 20.7700 30.7200" stroke="black" stroke-width="3.15" fill="none"/>
    <path d="M 20.7700 30.7200 L 20.0000 30.7900" stroke="black" stroke-width="3.15" fill="none"/>
    <path d="M 20.0000 49.3300 L 394.2600 49.3300" stroke="black" stroke-width="3.15" fill="none"/>
    <path d="M 207.1300 49.3300 L 20.0000 49.3300" stroke="black" stroke-width="3.15" fill="none"/>
    <path d="M 20.0000 45.3900 L 394.2600 45.3900" stroke="black" stroke-width="3.15" fill="none"/>
    <path d="M 390.3200 45.3900 L 390.3900 44.6200" stroke="black" stroke-width="3.15" fill="none"/>
    <path d="M 390.3900 44.6200 L 390.6200 43.8800" stroke="black" stroke-width="3.15" fill="none"/>
    <path d="M 390.6200 43.8800 L 390.9800 43.2000" stroke="black" stroke-width="3.15" fill="none"/>
    <path d="M 390.9800 43.2000 L 391.4700 42.6000" stroke="black" stroke-width="3.15" fill="none"/>
    <path d="M 391.4700 42.6000 L 392.0700 42.1200" stroke="black" stroke-width="3.15" fill="none"/>
    <path d="M 392.0700 42.1200 L 392.7500 41.7500" stroke="black" stroke-width="3.15" fill="none"/>
    <path d="M 392.7500 41.7500 L 393.4900 41.5300" stroke="black" stroke-width="3.15" fill="none"/>
    <path d="M 393.4900 41.5300 L 394.2600 41.4500" stroke="black" stroke-width="3.15" fill="none"/>
    <path d="M 394.2600 20.0000 L 20.0000 20.0000" stroke="black" stroke-width="3.15" fill="none"/>
    <path d="M 23.9400 20.0000 L 23.8700 20.7700" stroke="black" stroke-width="3.15" fill="none"/>
    <path d="M 23.8700 20.7700 L 23.6400 21.5100" stroke="black" stroke-width="3.15" fill="none"/>
    <path d="M 23.6400 21.5100 L 23.2800 22.1900" stroke="black" stroke-width="3.15" fill="none"/>
    <path d="M 23.2800 22.1900 L 22.7900 22.7900" stroke="black" stroke-width="3.15" fill="none"/>
    <path d="M 22.7900 22.7900 L 22.1900 23.2700" stroke="black" stroke-width="3.15" fill="none"/>
    <path d="M 22.1900 23.2700 L 21.5100 23.6400" stroke="black" stroke-width="3.15" fill="none"/>
    <path d="M 21.5100 23.6400 L 20.7700 23.8600" stroke="black" stroke-width="3.15" fill="none"/>
    <path d="M 20.7700 23.8600 L 20.0000 23.9400" stroke="black" stroke-width="3.15" fill="none"/>
    <path d="M 20.0000 45.3900 L 394.2600 45.3900" stroke="black" stroke-width="3.15" fill="none"/>
    <path d="M 390.3200 45.3900 L 390.3900 44.6200" stroke="black" stroke-width="3.15" fill="none"/>
    <path d="M 390.3900 44.6200 L 390.6200 43.8800" stroke="black" stroke-width="3.15" fill="none"/>
    <path d="M 390.6200 43.8800 L 390.9800 43.2000" stroke="black" stroke-width="3.15" fill="none"/>
    <path d="M 390.9800 43.2000 L 391.4700 42.6000" stroke="black" stroke-width="3.15" fill="none"/>
    <path d="M 391.4700 42.6000 L 392.0700 42.1200" stroke="black" stroke-width="3.15" fill="none"/>
    <path d="M 392.0700 42.1200 L 392.7500 41.7500" stroke="black" stroke-width="3.15" fill="none"/>
    <path d="M 392.7500 41.7500 L 393.4900 41.5300" stroke="black" stroke-width="3.15" fill="none"/>
    <path d="M 393.4900 41.5300 L 394.2600 41.4500" stroke="black" stroke-width="3.15" fill="none"/>
    <path d="M 394.2600 20.0000 L 20.0000 20.0000" stroke="black" stroke-width="3.15" fill="none"/>
    <path d="M 23.9400 20.0000 L 23.8700 20.7700" stroke="black" stroke-width="3.15" fill="none"/>
    <path d="M 23.8700 20.7700 L 23.6400 21.5100" stroke="black" stroke-width="3.15" fill="none"/>
    <path d="M 23.6400 21.5100 L 23.2800 22.1900" stroke="black" stroke-width="3.15" fill="none"/>
    <path d="M 23.2800 22.1900 L 22.7900 22.7900" stroke="black" stroke-width="3.15" fill="none"/>
    <path d="M 22.7900 22.7900 L 22.1900 23.2700" stroke="black" stroke-width="3.15" fill="none"/>
    <path d="M 22.1900 23.2700 L 21.5100 23.6400" stroke="black" stroke-width="3.15" fill="none"/>
    <path d="M 21.5100 23.6400 L 20.7700 23.8600" stroke="black" stroke-width="3.15" fill="none"/>
    <path d="M 20.7700 23.8600 L 20.0000 23.9400" stroke="black" stroke-width="3.15" fill="none"/>
    <path d="M 20.0000 45.3900 L 394.2600 45.3900" stroke="black" stroke-width="3.15" fill="none"/>
    <path d="M 390.3200 45.3900 L 390.3900 44.6200" stroke="black" stroke-width="3.15" fill="none"/>
    <path d="M 390.3900 44.6200 L 390.6200 43.8800" stroke="black" stroke-width="3.15" fill="none"/>
    <path d="M 390.6200 43.8800 L 390.9800 43.2000" stroke="black" stroke-width="3.15" fill="none"/>
    <path d="M 390.9800 43.2000 L 391.4700 42.6000" stroke="black" stroke-width="3.15" fill="none"/>
    <path d="M 391.4700 42.6000 L 392.0700 42.1200" stroke="black" stroke-width="3.15" fill="none"/>
    <path d="M 392.0700 42.1200 L 392.7500 41.7500" stroke="black" stroke-width="3.15" fill="none"/>
    <path d="M 392.7500 41.7500 L 393.4900 41.5300" stroke="black" stroke-width="3.15" fill="none"/>
    <path d="M 393.4900 41.5300 L 394.2600 41.4500" stroke="black" stroke-width="3.15" fill="none"/>
    <path d="M 394.2600 20.0000 L 20.0000 20.0000" stroke="black" stroke-width="3.15" fill="none"/>
    <path d="M 20.0000 20.0000 L 171.5500 20.0000" stroke="black" stroke-width="3.15" fill="none"/>
    <path d="M 207.1300 45.3900 L 20.0000 45.3900" stroke="black" stroke-width="3.15" fill="none"/>
  </g>
  
  <!-- Professional annotations -->
  <text x="20" y="30" class="title-text">LOG-PERIODIC TV ANTENNA</text>
  <text x="20" y="90" class="label-text">DIMENSIONS:</text>
  <text x="20" y="105" class="dimension-text">Width: 3.743 inches (3743 mils)</text>
  <text x="20" y="120" class="dimension-text">Height: 0.303 inches (303 mils)</text>
  <text x="20" y="150" class="label-text">MANUFACTURING:</text>
  <text x="20" y="165" class="dimension-text">Trace Width: 10-20 mil (laser etching)</text>
  <text x="20" y="180" class="dimension-text">Substrate: 4.0" x 2.0" FR-4 PCB</text>
  <text x="20" y="195" class="dimension-text">Scale: 1:1 (ready for production)</text>
  <line x1="20.0" y1="27.1" x2="394.3" y2="27.1" class="dimension-line"/>
  <line x1="20.0" y1="22.1" x2="20.0" y2="32.1" class="dimension-line"/>
  <line x1="394.3" y1="22.1" x2="394.3" y2="32.1" class="dimension-line"/>
  <line x1="424.3" y1="-2.9" x2="424.3" y2="-33.2" class="dimension-line"/>
  <line x1="419.3" y1="-2.9" x2="429.3" y2="-2.9" class="dimension-line"/>
  <line x1="419.3" y1="-33.2" x2="429.3" y2="-33.2" class="dimension-line"/>
  
  <!-- Origin marker (feed point) -->
  <circle cx="207.1" cy="-18.1" r="8" class="feed-point"/>
  <text x="222.1" y="-18.1" class="label-text">FEED POINT</text>
  
</svg>